<svg width="40" height="40" viewBox="0 0 58 58" fill="#027b35" xmlns="http://www.w3.org/2000/svg">
  
  <path d="M49.3906 26.8477H16.2502L36.0858 9.62891C36.403 9.35137 36.2104 8.83594 35.7912 8.83594H30.7785C30.5576 8.83594 30.3481 8.91523 30.1838 9.05684L8.77932 27.6293C8.58328 27.7992 8.42606 28.0093 8.31831 28.2453C8.21055 28.4813 8.15479 28.7377 8.15479 28.9972C8.15479 29.2566 8.21055 29.513 8.31831 29.749C8.42606 29.985 8.58328 30.1951 8.77932 30.365L30.3084 49.0508C30.3934 49.1244 30.4953 49.1641 30.603 49.1641H35.7856C36.2047 49.1641 36.3973 48.643 36.0801 48.3711L16.2502 31.1523H49.3906C49.6399 31.1523 49.8438 30.9484 49.8438 30.6992V27.3008C49.8438 27.0516 49.6399 26.8477 49.3906 26.8477Z" fill="#027b35"/>
</svg>
