<?xml version="1.0" standalone="no"?>
<!DOCTYPE svg PUBLIC "-//W3C//DTD SVG 20010904//EN"
 "http://www.w3.org/TR/2001/REC-SVG-20010904/DTD/svg10.dtd">
<svg version="1.0" xmlns="http://www.w3.org/2000/svg"
 width="344.000000pt" height="408.000000pt" viewBox="0 0 344.000000 408.000000"
 preserveAspectRatio="xMidYMid meet">

<g transform="translate(0.000000,408.000000) scale(0.100000,-0.100000)"
fill="#ffffff" stroke="none">
<path d="M2877 4038 c-32 -32 -196 -466 -197 -519 0 -30 -38 -143 -70 -211
-33 -70 -75 -102 -177 -133 -289 -88 -384 -159 -444 -335 -28 -84 -32 -238 -7
-320 25 -80 84 -157 179 -231 210 -164 218 -173 205 -242 -3 -19 -12 -42 -20
-52 -12 -17 -15 -17 -77 5 -53 18 -100 24 -270 32 l-207 10 -83 -27 c-122 -40
-217 -88 -276 -139 -28 -26 -56 -46 -61 -46 -5 0 -106 120 -223 266 -190 237
-244 294 -278 294 -35 0 -168 -176 -276 -365 -16 -27 -68 -113 -115 -190 -92
-148 -249 -432 -293 -527 -36 -80 -147 -433 -147 -468 0 -19 9 -36 27 -50 25
-19 36 -21 118 -16 49 2 225 9 390 15 165 6 340 15 390 21 62 6 91 6 96 -1 3
-6 9 -45 13 -87 13 -155 68 -296 149 -380 68 -70 291 -195 441 -247 178 -61
427 -89 587 -66 169 25 364 122 531 266 259 222 309 311 338 601 32 314 -49
631 -201 798 -31 34 -73 70 -93 81 -20 11 -36 26 -36 35 1 8 17 56 38 105 l37
90 140 93 c186 123 233 166 304 273 87 132 105 193 106 354 0 154 -13 202 -87
327 -60 102 -80 170 -81 267 0 66 9 107 72 311 40 129 75 259 78 287 l6 53
-59 27 c-51 24 -77 28 -194 34 -74 4 -151 12 -170 18 -52 16 -78 13 -103 -11z
m258 -124 c137 -8 138 -8 130 -50 -10 -54 -111 -364 -122 -375 -13 -13 -129
11 -243 50 -68 23 -84 32 -82 46 4 21 118 341 127 354 3 5 26 3 52 -5 27 -8
89 -17 138 -20z m-218 -518 c78 -25 155 -46 172 -46 29 0 30 -2 36 -57 11 -88
52 -211 95 -283 65 -109 82 -156 88 -246 7 -116 -11 -197 -64 -291 -62 -107
-116 -159 -284 -273 -80 -53 -159 -113 -176 -132 -17 -19 -44 -74 -62 -125
l-33 -92 -37 16 c-20 8 -38 16 -40 18 -2 2 10 43 26 92 17 48 39 135 51 193
25 124 83 350 94 368 5 6 22 12 39 12 46 0 98 56 98 107 0 28 -6 45 -22 60
-35 32 -124 73 -157 73 -53 0 -121 -79 -121 -142 0 -13 9 -41 20 -63 21 -42
21 -42 -16 -174 -13 -46 -38 -167 -55 -268 -16 -101 -33 -191 -36 -199 -4 -11
-13 -14 -32 -9 -39 10 -43 18 -26 58 31 74 13 171 -43 231 -15 16 -77 66 -139
112 -184 139 -217 190 -216 339 1 222 80 313 338 390 50 15 107 34 128 43 85
35 154 135 193 278 10 37 22 63 28 61 6 -2 75 -25 153 -51z m-1836 -1411 c105
-127 193 -236 196 -243 3 -7 -27 -62 -67 -122 -113 -171 -150 -312 -150 -571
0 -84 -1 -89 -22 -93 -63 -13 -287 -26 -450 -26 -144 0 -203 -5 -277 -20 -143
-30 -136 -37 -95 81 94 270 205 493 407 816 41 65 82 134 92 153 38 74 159
260 167 258 5 -2 94 -107 199 -233z m1164 -85 c43 -12 89 -29 102 -37 13 -9
35 -13 50 -10 17 3 65 -8 128 -30 104 -37 113 -44 277 -193 143 -131 218 -422
189 -733 -23 -250 -66 -320 -316 -523 -191 -154 -349 -216 -560 -217 -189 -1
-373 47 -602 158 -209 102 -296 229 -305 449 l-3 70 180 43 180 43 136 -12
c200 -16 242 -2 220 78 -16 59 -195 351 -373 606 -48 69 -88 129 -88 132 0 8
76 77 115 103 38 26 186 84 235 93 19 3 107 5 195 5 133 -2 174 -6 240 -25z
m-690 -520 c92 -135 183 -266 202 -292 l35 -48 -134 6 c-129 6 -137 5 -277
-30 -80 -20 -156 -36 -169 -36 l-25 0 7 133 c8 154 25 247 61 324 36 79 117
206 125 196 4 -4 83 -118 175 -253z"/>
</g>
</svg>
