<svg width="43" height="43" viewBox="0 0 43 43" fill="#027b35" xmlns="http://www.w3.org/2000/svg">

  <path d="M18.49 31.39L33.6475 16.2325L30.6375 13.2225L18.49 25.37L12.3625 19.2425L9.3525 22.2525L18.49 31.39ZM21.5 43C18.5258 43 15.7308 42.4353 13.115 41.3058C10.4992 40.1763 8.22375 38.6448 6.28875 36.7112C4.35375 34.7762 2.82223 32.5008 1.6942 29.885C0.566167 27.2692 0.00143333 24.4742 0 21.5C0 18.5258 0.564734 15.7308 1.6942 13.115C2.82367 10.4992 4.35518 8.22375 6.28875 6.28875C8.22375 4.35375 10.4992 2.82223 13.115 1.6942C15.7308 0.566167 18.5258 0.00143333 21.5 0C24.4742 0 27.2692 0.564734 29.885 1.6942C32.5008 2.82367 34.7762 4.35518 36.7112 6.28875C38.6462 8.22375 40.1785 10.4992 41.3079 13.115C42.4374 15.7308 43.0014 18.5258 43 21.5C43 24.4742 42.4353 27.2692 41.3058 29.885C40.1763 32.5008 38.6448 34.7762 36.7112 36.7112C34.7762 38.6462 32.5008 40.1785 29.885 41.3079C27.2692 42.4374 24.4742 43.0014 21.5 43Z" fill="#027b35"/>
</svg>
