<?xml version="1.0" standalone="no"?>
<!DOCTYPE svg PUBLIC "-//W3C//DTD SVG 20010904//EN"
 "http://www.w3.org/TR/2001/REC-SVG-20010904/DTD/svg10.dtd">
<svg version="1.0" xmlns="http://www.w3.org/2000/svg"
 width="300.000000pt" height="300.000000pt" viewBox="0 0 300.000000 300.000000"
 preserveAspectRatio="xMidYMid meet">
<metadata>
Created by potrace 1.10, written by Peter Selinger 2001-2011
</metadata>
<g transform="translate(0.000000,300.000000) scale(0.100000,-0.100000)"
fill="#027b35" stroke="none">
<path d="M1065 2459 c-401 -232 -740 -431 -752 -442 l-23 -20 0 -697 c0 -764
-2 -741 58 -739 15 0 21 3 15 6 -9 3 -13 27 -13 69 l0 64 50 28 c42 23 50 32
50 56 0 28 -1 28 -24 13 -13 -9 -26 -13 -30 -10 -3 4 -6 264 -6 578 0 532 1
573 18 587 18 16 1379 804 1407 814 14 6 16 1 13 -25 -3 -32 -20 -42 -674
-419 -369 -213 -679 -393 -688 -401 -18 -15 -22 -71 -6 -87 6 -6 11 -217 12
-564 3 -487 5 -555 18 -558 9 -1 24 5 35 13 19 16 19 16 -3 5 -13 -7 -26 -10
-28 -8 -2 3 -4 253 -4 557 l-1 553 143 82 c79 45 373 214 653 375 281 162 531
306 558 322 26 16 49 29 51 29 2 0 6 -27 8 -59 1 -33 -1 -57 -5 -54 -4 3 -13
1 -20 -4 -23 -18 -147 -84 -147 -79 0 3 34 24 75 47 41 22 78 45 81 51 11 17
-5 9 -180 -92 l-166 -95 2 -265 3 -265 2 257 3 257 28 19 c41 28 142 84 142
78 0 -2 -34 -24 -75 -47 -52 -30 -71 -46 -62 -52 8 -6 7 -7 -5 -3 -17 5 -18
-12 -18 -259 0 -252 1 -264 19 -270 14 -4 65 20 168 79 128 74 148 83 151 66
2 -10 -1 -27 -7 -37 -5 -10 -118 -80 -250 -156 l-241 -139 2 -51 1 -52 4 45
c3 24 9 50 15 57 13 16 42 17 32 2 -4 -7 1 -7 16 1 31 16 36 6 6 -14 -14 -8
-32 -13 -41 -10 -14 6 -15 -6 -13 -102 3 -100 5 -109 23 -112 11 -1 115 53
235 122 l215 125 3 -41 c2 -26 -2 -44 -10 -49 -22 -15 -34 -9 -14 6 52 39 -17
3 -235 -122 -145 -84 -239 -144 -239 -153 0 -11 2 -12 8 -3 7 11 316 193 328
193 3 0 2 -4 -1 -10 -9 -15 2 -12 31 6 13 9 27 14 30 11 3 -3 -13 -15 -36 -27
-23 -12 -39 -17 -35 -11 12 20 -10 11 -95 -40 -47 -27 -74 -47 -60 -44 24 6
24 5 6 -9 -13 -10 -22 -12 -26 -6 -4 7 -24 1 -54 -16 -51 -29 -57 -46 -7 -19
41 21 40 12 -3 -14 -19 -12 -40 -19 -47 -16 -8 3 -20 -4 -27 -16 -8 -12 -9
-18 -3 -14 8 4 11 -22 11 -83 0 -107 9 -122 61 -97 19 9 45 31 59 49 13 18 39
43 57 55 31 20 43 41 25 41 -9 0 -64 -53 -114 -110 -43 -49 -49 -40 -46 66 l3
97 300 173 c165 96 303 174 308 174 4 0 7 -42 7 -93 l0 -93 -202 -117 c-112
-64 -216 -126 -233 -137 l-30 -20 33 6 c17 4 32 3 32 -2 -1 -16 -44 -59 -73
-74 -33 -17 -45 -35 -51 -81 -3 -19 -8 -54 -11 -79 -4 -25 -19 -64 -35 -87
-20 -30 -25 -43 -16 -43 26 0 57 68 67 143 16 113 17 115 57 136 48 24 68 48
79 91 8 32 22 42 164 125 86 50 172 100 193 112 l37 23 -3 107 c-3 99 -5 108
-23 112 -11 2 -23 8 -26 13 -3 5 -33 -7 -65 -26 -69 -42 -65 -47 9 -10 43 21
48 22 27 5 -14 -11 -33 -23 -42 -26 -10 -4 -15 -12 -11 -21 3 -7 0 -14 -7 -14
-6 0 -8 5 -5 10 3 6 1 10 -4 10 -6 0 -11 -6 -11 -14 0 -15 -48 -51 -57 -42 -3
3 5 10 18 16 21 10 24 16 21 59 l-4 48 69 39 c37 21 79 44 93 51 14 7 19 13
11 13 -11 0 -431 -237 -588 -332 l-33 -20 0 99 1 98 224 129 c223 128 224 128
202 146 l-22 19 25 10 c14 5 21 10 17 10 -5 1 -1 9 9 18 15 16 17 16 31 -3 15
-19 15 -19 11 1 -2 11 -13 24 -26 30 -12 5 -22 15 -22 22 0 6 41 35 90 63 l90
52 0 263 c0 254 -1 264 -20 270 -11 3 -24 3 -30 0 -5 -3 -10 1 -10 9 0 12 -12
9 -51 -15 -27 -17 -48 -33 -46 -36 3 -2 20 5 38 16 19 12 39 21 44 21 6 0 -15
-16 -45 -35 l-55 -34 -3 82 c-2 45 -8 84 -14 88 -17 11 -48 -23 -48 -53 0 -16
-5 -28 -11 -28 -7 0 -9 10 -5 25 4 14 4 25 1 25 -2 0 -28 -15 -57 -33 -29 -19
-88 -53 -130 -77 -43 -24 -76 -46 -74 -48 3 -2 42 18 88 45 105 62 117 67 111
43 -3 -10 -34 -33 -71 -51 -37 -19 -70 -38 -74 -44 -4 -5 -8 -6 -8 -2 0 4 -10
-2 -22 -13 -13 -12 -34 -27 -48 -34 -121 -63 -206 -110 -210 -116 -5 -7 -70
-45 -145 -84 -22 -12 -42 -23 -45 -26 -3 -3 -22 -13 -43 -23 -21 -9 -43 -22
-50 -27 -23 -20 -127 -78 -127 -72 0 4 -6 0 -13 -8 -7 -8 -25 -22 -42 -30 -16
-8 -42 -23 -57 -33 -16 -10 -33 -15 -39 -11 -7 4 -9 3 -6 -4 4 -6 -25 -28 -70
-52 -164 -90 -188 -104 -203 -118 -13 -13 -15 -11 -22 19 -3 19 -6 34 -5 35 8
3 279 158 497 284 521 300 795 457 806 461 6 2 30 21 53 41 38 35 41 42 41 91
0 58 -19 87 -56 87 -10 0 -347 -190 -749 -421z m761 372 c-3 -4 -47 -32 -98
-61 -101 -58 -449 -259 -648 -375 -69 -40 -249 -143 -400 -230 -151 -87 -284
-166 -295 -177 -19 -18 -20 -33 -23 -595 -2 -427 0 -585 9 -606 10 -24 9 -31
-5 -45 -15 -15 -16 26 -16 608 0 420 -3 626 -10 628 -24 8 -1 25 153 112 89
51 182 105 207 120 25 15 110 64 190 110 80 46 197 113 260 150 216 126 595
344 620 357 28 15 64 17 56 4z m250 -736 c-3 -9 -442 -268 -478 -283 -5 -2 -7
112 -6 254 l3 257 240 138 240 139 3 -247 c1 -136 1 -252 -2 -258z m-211 -235
c-3 -5 0 -10 7 -10 14 0 -6 -15 -74 -54 -27 -16 -48 -25 -48 -22 0 3 14 13 31
21 17 9 28 19 26 22 -3 3 -47 -19 -98 -48 -50 -29 -86 -55 -80 -57 8 -3 6 -9
-6 -18 -21 -16 -37 -18 -28 -4 11 18 -9 11 -69 -25 -32 -20 -60 -34 -63 -32
-4 4 33 27 128 80 25 14 95 55 155 90 110 66 130 75 119 57z m-8 -349 c1 -11
-9 -23 -25 -30 l-27 -12 25 21 c35 28 15 25 -37 -6 -25 -14 -47 -24 -49 -21
-4 4 93 65 106 66 3 1 6 -7 7 -18z"/>
<path d="M1981 2363 c1 -80 4 -119 9 -103 12 37 12 230 0 230 -6 0 -10 -49 -9
-127z"/>
<path d="M1901 2403 c1 -21 -2 -47 -7 -58 -14 -30 -6 -317 9 -312 14 4 28 316
16 331 -4 4 -5 24 -2 42 4 23 2 34 -6 34 -8 0 -12 -13 -10 -37z"/>
<path d="M1820 2268 c0 -67 3 -119 6 -115 9 9 11 237 2 237 -4 0 -8 -55 -8
-122z"/>
<path d="M1661 2178 c2 -140 7 -131 11 20 2 56 0 102 -4 102 -4 0 -7 -55 -7
-122z"/>
<path d="M1730 2251 c-16 -30 -13 -46 5 -31 9 8 15 9 15 2 0 -6 -4 -14 -10
-17 -14 -8 -13 -265 0 -265 17 0 19 16 22 178 2 115 0 152 -9 152 -7 0 -17 -9
-23 -19z"/>
<path d="M1972 2213 c-14 -27 -3 -133 14 -133 10 0 14 13 14 44 0 24 3 58 6
75 5 24 3 31 -9 31 -9 0 -20 -8 -25 -17z"/>
<path d="M1810 2121 c-14 -27 -13 -44 3 -34 6 4 17 8 22 8 6 0 11 10 13 23 4
28 -23 30 -38 3z"/>
<path d="M1814 2066 c-8 -22 0 -81 11 -81 6 0 11 21 13 48 3 45 -12 65 -24 33z"/>
<path d="M1657 2033 c-12 -14 -14 -31 -10 -81 8 -83 26 -76 34 14 7 76 1 94
-24 67z"/>
<path d="M925 2830 c-18 -7 -18 -8 7 -15 32 -8 58 3 37 16 -16 10 -18 10 -44
-1z"/>
<path d="M1002 2818 c-17 -17 -15 -48 2 -48 8 0 16 7 20 15 10 26 29 17 23
-11 -4 -23 -3 -24 11 -10 13 13 13 18 2 31 -22 26 -46 35 -58 23z"/>
<path d="M890 2765 c-7 -9 -21 -13 -34 -10 -27 7 -56 -32 -34 -46 9 -6 19 -2
31 12 11 14 24 19 37 16 26 -7 45 16 26 32 -10 9 -16 8 -26 -4z"/>
<path d="M2375 2756 c-37 -16 -82 -68 -91 -102 -11 -42 2 -110 26 -144 13 -18
42 -41 65 -51 25 -11 47 -30 55 -46 l13 -28 13 33 c9 21 21 32 34 32 32 0 95
64 109 110 40 133 -96 252 -224 196z m135 -14 c76 -38 105 -144 60 -218 -27
-43 -99 -78 -144 -70 -109 21 -167 134 -115 226 40 71 127 99 199 62z"/>
<path d="M2420 2700 c0 -22 -10 -26 -27 -9 -7 7 -15 5 -27 -7 -12 -12 -14 -20
-7 -27 17 -17 13 -27 -10 -27 -15 0 -20 -5 -17 -22 2 -13 8 -23 15 -23 19 0
26 -14 14 -28 -15 -19 7 -38 37 -30 16 4 22 1 22 -11 0 -19 36 -22 43 -3 2 6
17 12 33 12 25 0 29 3 27 28 -1 18 3 27 13 27 8 0 14 10 14 25 0 16 -6 25 -16
25 -12 0 -15 6 -11 22 8 29 -11 52 -29 37 -16 -13 -34 -4 -34 17 0 8 -9 14
-20 14 -13 0 -20 -7 -20 -20z m65 -60 c41 -46 -29 -116 -75 -75 -22 20 -27 64
-8 83 19 19 63 14 83 -8z"/>
<path d="M581 2726 c-26 -41 -26 -56 -3 -56 9 0 28 17 40 36 19 29 21 38 10
45 -21 14 -25 11 -47 -25z"/>
<path d="M476 2733 c-25 -13 -27 -17 -12 -25 11 -6 28 -5 52 4 32 11 33 14 18
25 -22 16 -22 16 -58 -4z"/>
<path d="M922 2704 c-23 -16 -52 -64 -52 -86 1 -7 7 2 15 20 8 17 26 43 41 57
31 28 29 32 -4 9z"/>
<path d="M970 2685 c0 -38 -27 -83 -61 -104 -30 -18 -30 -19 -10 -26 46 -14
105 56 99 117 -4 39 -28 51 -28 13z"/>
<path d="M815 2661 c-3 -11 -16 -23 -27 -27 -19 -6 -20 -7 -4 -16 22 -12 69
16 64 39 -5 24 -25 27 -33 4z"/>
<path d="M425 2630 c-13 -14 -26 -19 -41 -16 -14 4 -26 0 -35 -12 -9 -12 -9
-14 -1 -6 9 8 24 8 53 0 33 -8 42 -7 56 7 16 15 16 19 2 32 -14 14 -17 13 -34
-5z"/>
<path d="M665 2640 c-11 -17 6 -31 28 -24 31 9 34 14 17 24 -20 13 -37 12 -45
0z"/>
<path d="M510 2583 c-59 -40 -91 -98 -89 -160 l1 -38 8 46 c13 78 53 135 110
158 14 5 18 10 10 10 -9 1 -27 -7 -40 -16z"/>
<path d="M710 2583 c0 -9 -12 -30 -27 -47 l-28 -30 35 26 c33 24 53 68 31 68
-6 0 -11 -8 -11 -17z"/>
<path d="M578 2547 c6 -70 -32 -133 -103 -170 l-30 -16 34 -1 c58 0 131 95
131 171 0 9 -8 27 -18 39 -17 21 -17 21 -14 -23z"/>
<path d="M1018 2568 c-2 -14 -12 -24 -28 -28 -23 -6 -24 -6 -5 -14 29 -11 71
43 46 59 -5 3 -11 -5 -13 -17z"/>
<path d="M316 2551 c-3 -4 3 -16 13 -25 25 -23 16 -61 -22 -88 -27 -20 -28
-22 -12 -34 14 -11 22 -10 45 8 44 32 47 65 10 103 -17 17 -27 34 -24 38 4 4
5 7 1 7 -3 0 -8 -4 -11 -9z"/>
<path d="M934 2496 c-3 -15 -12 -25 -18 -23 -6 3 -17 -2 -25 -10 -11 -13 -9
-14 15 -11 21 2 30 10 36 32 4 17 5 32 3 34 -2 2 -7 -8 -11 -22z"/>
<path d="M660 2435 c10 -12 9 -20 -4 -40 -9 -14 -21 -23 -26 -20 -5 3 -11 1
-14 -4 -5 -8 24 -26 29 -19 34 51 43 76 33 86 -17 17 -33 15 -18 -3z"/>
<path d="M1350 2399 c-36 -21 -62 -39 -57 -39 11 0 116 60 123 71 7 12 8 12
-66 -32z"/>
<path d="M566 2345 c-9 -9 -20 -34 -26 -55 -10 -36 -19 -45 -42 -42 -3 1 -9
-5 -12 -13 -7 -19 -2 -19 33 0 21 10 30 24 34 51 3 20 14 45 23 55 20 23 12
26 -10 4z"/>
<path d="M2368 2335 c-54 -17 -88 -55 -88 -96 0 -29 22 -40 35 -19 3 6 11 10
16 10 6 0 7 -5 3 -12 -5 -7 -3 -8 5 -4 7 5 16 19 21 32 8 20 14 23 42 17 42
-8 58 -20 58 -47 0 -34 17 -53 32 -38 6 6 22 12 35 12 20 0 23 5 23 34 0 19
-5 38 -11 41 -6 4 -8 12 -6 19 3 6 -2 17 -9 24 -10 9 -14 9 -14 1 0 -6 -8 -2
-17 10 -24 28 -68 34 -125 16z m112 -55 c31 -31 24 -44 -9 -18 -17 13 -30 26
-30 31 -1 14 19 7 39 -13z"/>
<path d="M1168 2142 c-258 -150 -288 -170 -287 -192 l1 -25 9 26 c5 14 21 31
35 38 34 15 43 13 20 -4 -11 -8 -14 -15 -7 -15 7 0 9 -4 6 -10 -3 -5 -13 -10
-21 -10 -9 0 -12 5 -8 12 4 7 3 8 -4 4 -9 -5 -12 -82 -12 -271 0 -253 1 -264
20 -270 14 -4 100 40 302 157 l283 164 3 259 c2 232 1 261 -14 272 -13 10 -23
9 -45 -2 -37 -20 -52 -19 -16 1 15 8 27 19 27 24 0 12 39 34 -292 -158z m266
101 c-21 -15 -38 -17 -29 -3 3 6 -1 7 -10 3 -11 -4 -13 -8 -6 -13 14 -8 -61
-52 -80 -47 -8 2 -11 2 -6 0 9 -6 -1 -23 -14 -23 -6 0 -7 5 -4 10 3 6 2 10 -4
10 -5 0 -13 -4 -16 -10 -3 -5 0 -10 7 -10 9 0 9 -3 -2 -10 -8 -5 -19 -10 -25
-10 -5 0 -3 5 5 10 8 5 11 10 5 10 -15 -1 -92 -50 -77 -50 7 0 10 -4 7 -10 -3
-5 -11 -10 -16 -10 -6 0 -7 5 -4 10 3 6 2 10 -4 10 -16 0 -22 -18 -9 -24 7 -3
4 -4 -7 -1 -11 2 -27 0 -35 -5 -11 -7 -11 -10 -2 -10 7 0 10 -4 7 -10 -3 -5
-11 -10 -16 -10 -6 0 -7 5 -4 10 3 6 2 10 -4 10 -5 0 -13 -4 -16 -10 -3 -5 0
-10 7 -10 9 0 9 -3 -2 -10 -8 -5 -19 -10 -25 -10 -5 0 -3 5 5 10 31 20 1 9
-44 -16 -26 -15 -49 -24 -51 -22 -3 2 68 46 158 98 89 51 185 107 214 125 30
18 66 32 84 32 29 0 30 -2 13 -14z m66 -183 c0 -110 -3 -200 -6 -200 -4 0 -27
15 -53 33 -54 40 -71 50 -71 43 0 -2 29 -25 65 -51 61 -43 65 -48 65 -85 0
-35 -5 -43 -37 -64 -43 -28 -524 -306 -530 -306 -2 0 -2 116 -1 257 l3 257
103 59 c76 44 100 62 90 69 -9 7 -7 8 7 4 14 -4 71 25 180 88 88 52 166 95
173 95 9 1 12 -45 12 -199z m-450 -34 c0 -8 -92 -58 -97 -53 -3 3 17 17 44 31
53 28 53 28 53 22z"/>
<path d="M1289 2078 c-22 -25 -43 -68 -35 -76 3 -2 8 7 11 21 9 33 49 70 72
65 14 -3 18 -12 17 -41 -2 -48 -29 -80 -66 -75 -15 3 -25 1 -22 -4 12 -19 53
-7 78 23 57 68 6 150 -55 87z"/>
<path d="M1310 1864 c-34 -75 -26 -75 -119 4 -85 73 -57 40 46 -54 53 -49 86
-74 73 -57 -24 33 -24 33 -6 70 30 61 47 103 42 103 -3 0 -19 -30 -36 -66z"/>
<path d="M1087 1853 c-46 -74 -127 -221 -127 -229 0 -7 115 182 151 249 18 33
-1 17 -24 -20z"/>
<path d="M1127 2271 c-60 -36 -74 -50 -22 -23 39 20 85 52 75 51 -3 0 -26 -13
-53 -28z"/>
<path d="M412 2254 c-18 -21 -25 -24 -36 -15 -9 8 -16 8 -20 2 -4 -6 3 -15 15
-22 23 -12 34 -4 60 44 13 24 8 21 -19 -9z"/>
<path d="M2300 2159 c0 -33 22 -87 37 -93 9 -4 16 -5 17 -4 1 2 -11 27 -26 57
-16 30 -28 48 -28 40z"/>
<path d="M810 2089 c-69 -39 -129 -76 -135 -82 -5 -6 10 1 35 15 175 97 243
139 228 138 -2 0 -59 -32 -128 -71z"/>
<path d="M2513 2135 c-32 -34 -29 -40 7 -15 17 12 30 26 30 31 0 15 -14 9 -37
-16z"/>
<path d="M2451 2080 c-13 -11 -32 -20 -42 -20 -10 0 -19 -4 -19 -9 0 -6 12 -6
32 0 18 5 34 9 35 9 1 0 7 9 13 20 13 25 11 25 -19 0z"/>
<path d="M2478 2009 c-19 -21 -36 -29 -61 -29 -41 0 -49 7 -36 31 11 21 3 23
-51 13 -43 -9 -60 -50 -67 -164 l-6 -88 59 -12 c32 -7 63 -15 68 -18 5 -3 6 0
2 6 -3 5 -24 13 -46 17 -22 4 -40 12 -41 18 -4 45 4 164 12 179 12 22 42 23
59 3 17 -21 68 -19 112 4 21 10 40 16 43 13 3 -3 5 -22 5 -42 0 -20 9 -63 20
-95 26 -77 25 -99 -6 -124 -30 -23 -99 -45 -119 -37 -9 3 -11 -2 -8 -15 5 -17
1 -19 -30 -17 -61 4 -86 -40 -51 -90 14 -20 14 -22 -4 -22 -11 0 -39 16 -62
35 -23 19 -45 35 -49 35 -7 0 -61 122 -61 136 0 3 20 4 45 3 25 -2 45 1 46 6
2 10 -92 43 -123 44 -25 1 -23 -11 21 -124 37 -93 42 -101 73 -109 l33 -8 1
-387 c1 -253 5 -395 13 -413 8 -23 17 -28 44 -28 18 0 40 6 49 12 21 17 48
184 49 304 0 49 6 123 12 164 10 59 10 83 0 110 -6 19 -12 47 -12 63 -1 21 -8
30 -28 38 -16 6 -39 20 -52 32 -24 22 -24 22 -11 1 8 -12 26 -29 41 -38 22
-13 30 -28 39 -72 12 -58 12 -64 -13 -172 -9 -38 -13 -87 -10 -120 5 -51 -20
-252 -33 -274 -3 -4 -14 -8 -25 -8 -15 0 -19 7 -20 38 0 20 -3 46 -6 57 -4 16
-11 675 -7 675 1 0 21 -7 44 -15 54 -19 153 -19 214 -1 41 13 47 13 42 0 -9
-22 21 -446 34 -478 12 -34 33 -272 25 -297 -4 -10 -13 -15 -23 -12 -19 5 -66
156 -118 383 -24 105 -48 169 -60 157 -7 -7 50 -263 94 -427 38 -140 40 -145
67 -148 15 -2 39 -1 53 3 l25 6 -6 137 c-4 75 -13 162 -21 193 -8 31 -23 171
-32 310 -9 140 -17 255 -19 257 -4 5 -80 -30 -114 -54 -40 -27 -58 -29 -96
-12 -21 9 -55 62 -55 84 0 2 25 1 55 -2 49 -6 55 -5 49 10 -5 12 0 16 20 16
31 0 135 56 143 77 3 8 -6 54 -21 101 -30 98 -32 126 -12 164 15 28 16 27 -54
42 -8 2 -27 -10 -42 -25z"/>
<path d="M2631 1975 c33 -33 45 -61 64 -162 6 -29 4 -33 -20 -39 -14 -3 -24
-9 -21 -11 3 -3 21 0 41 7 30 10 35 15 29 33 -4 12 -15 54 -25 92 -18 71 -51
115 -86 115 -11 0 -6 -10 18 -35z"/>
<path d="M585 1959 c-38 -22 -74 -45 -80 -51 -11 -12 99 48 136 74 41 29 18
19 -56 -23z"/>
<path d="M1966 1988 c-12 -27 3 -40 37 -33 25 4 28 3 15 -5 -9 -6 -14 -18 -11
-29 5 -19 6 -19 39 1 l34 20 0 -46 c0 -25 -3 -46 -6 -46 -3 0 -20 10 -37 22
l-31 22 19 -26 c11 -14 35 -31 54 -37 26 -7 31 -7 23 1 -7 7 -12 36 -12 65 0
41 -4 54 -19 62 -10 6 -21 7 -25 4 -3 -3 -6 1 -6 11 0 16 -2 16 -22 2 -30 -21
-36 -20 -41 7 -3 19 -5 20 -11 5z"/>
<path d="M2216 1919 c-36 -57 -43 -75 -35 -90 12 -24 18 -24 16 -1 0 10 16 50
36 90 21 40 36 72 33 72 -2 0 -25 -32 -50 -71z"/>
<path d="M673 1856 c-95 -55 -122 -76 -122 -91 1 -16 2 -17 6 -3 2 9 39 36 81
59 42 23 89 50 105 61 15 11 32 18 38 16 7 -2 -16 -19 -50 -37 -35 -18 -60
-35 -57 -38 3 -3 26 7 51 22 26 15 49 24 52 22 3 -3 -15 -16 -39 -28 -23 -12
-66 -37 -94 -55 -38 -24 -55 -29 -63 -21 -8 8 -11 -16 -11 -92 0 -65 -4 -100
-10 -96 -5 3 -10 3 -10 -1 0 -7 40 -44 48 -44 7 0 182 100 215 122 26 19 27
21 27 122 0 80 -3 106 -15 116 -8 7 -15 19 -15 26 0 8 -3 14 -7 13 -5 -1 -63
-33 -130 -73z m157 -85 l0 -99 -107 -63 c-60 -34 -112 -64 -116 -66 -4 -3 -6
42 -5 98 l3 103 105 63 c58 34 108 62 113 63 4 0 7 -45 7 -99z"/>
<path d="M778 1819 c-14 -8 -18 -24 -18 -78 0 -37 3 -70 6 -74 3 -3 15 -1 25
6 16 10 19 24 19 84 0 75 -2 80 -32 62z"/>
<path d="M727 1753 c-5 -4 -14 -8 -20 -8 -8 0 -12 -20 -12 -57 0 -57 7 -66 33
-49 9 5 12 26 10 65 -2 32 -7 54 -11 49z m3 -62 c0 -22 -4 -43 -10 -46 -6 -4
-10 12 -10 39 0 25 5 46 10 46 6 0 10 -18 10 -39z"/>
<path d="M647 1697 c-9 -7 -17 -32 -19 -60 -3 -43 -1 -47 17 -45 16 2 21 13
25 56 6 58 1 68 -23 49z"/>
<path d="M1957 1820 c-18 -52 -27 -86 -26 -104 0 -15 2 -16 6 -6 12 32 25 41
40 28 12 -10 13 -7 7 18 -17 69 -21 79 -27 64z"/>
<path d="M455 1320 c0 -272 1 -384 2 -247 2 136 2 358 0 495 -1 136 -2 24 -2
-248z"/>
<path d="M1883 1730 c0 -47 2 -66 4 -42 2 23 2 61 0 85 -2 23 -4 4 -4 -43z"/>
<path d="M1997 1793 c-11 -10 -8 -41 4 -49 6 -3 18 1 27 11 16 16 16 17 -7 10
-21 -6 -23 -5 -18 14 5 22 4 25 -6 14z"/>
<path d="M2720 1765 c-1 -5 -2 -26 -3 -45 -2 -31 -7 -38 -49 -59 -57 -29 -64
-48 -10 -26 60 26 82 44 81 68 -1 27 -16 76 -19 62z"/>
<path d="M883 1655 c0 -33 2 -45 4 -27 2 18 2 45 0 60 -2 15 -4 0 -4 -33z"/>
<path d="M1790 1690 c-6 -12 -7 -20 -1 -20 5 0 11 8 14 18 2 9 4 2 4 -16 0
-18 -3 -28 -7 -22 -5 8 -9 6 -14 -6 -9 -24 0 -29 27 -17 19 9 23 17 19 47 -5
40 -25 48 -42 16z"/>
<path d="M1731 1652 c-5 -26 -13 -55 -16 -65 -5 -13 -3 -16 8 -11 9 3 13 13
10 25 -4 13 0 19 11 19 10 0 13 -5 9 -17 -6 -15 -4 -16 8 -6 13 10 14 20 5 58
-6 25 -14 45 -17 45 -4 0 -12 -21 -18 -48z"/>
<path d="M1663 1605 c0 -44 2 -61 4 -37 2 23 2 59 0 80 -2 20 -4 1 -4 -43z"/>
<path d="M777 1610 c-35 -21 -49 -36 -20 -21 27 14 36 14 28 1 -3 -5 2 -10 11
-10 16 0 15 -2 -2 -21 -12 -13 -14 -19 -5 -17 17 4 23 -13 12 -30 -5 -9 -17
-11 -34 -7 -15 4 -24 12 -20 18 3 5 -13 -1 -35 -13 -23 -13 -42 -27 -42 -32 0
-13 18 -9 23 5 2 6 7 9 11 6 12 -11 -6 -39 -24 -39 -24 0 -57 -42 -66 -82 -5
-26 -2 -35 15 -49 24 -19 20 -38 -9 -57 -19 -12 -20 -9 -20 87 0 75 -4 101
-15 111 -13 11 -15 -2 -15 -104 0 -95 3 -118 15 -122 9 -4 64 22 128 58 l112
63 3 118 c2 70 -1 117 -7 117 -5 0 -11 8 -13 18 -3 18 -4 18 -31 2z m-31 -132
c-3 -13 -13 -55 -22 -95 -10 -40 -24 -75 -31 -78 -10 -3 -13 1 -9 13 3 9 12
49 21 87 20 90 22 95 36 95 7 0 9 -9 5 -22z m45 2 c26 -14 24 -32 -8 -83 -29
-46 -44 -36 -20 13 9 16 11 30 6 30 -5 0 -9 11 -9 25 0 28 3 29 31 15z m-125
-95 c-15 -22 -15 -25 -1 -25 9 0 15 -9 15 -21 0 -17 -4 -20 -22 -15 -13 3 -26
6 -30 6 -16 0 -7 32 20 72 20 30 28 37 30 24 2 -9 -4 -28 -12 -41z"/>
<path d="M1583 1578 c-13 -22 -13 -78 1 -78 21 0 36 23 36 57 0 34 -21 46 -37
21z"/>
<path d="M1508 1515 c-8 -36 -12 -65 -8 -65 4 0 10 10 13 21 4 16 11 20 26 16
12 -3 21 0 21 6 0 23 -21 87 -29 87 -4 0 -14 -29 -23 -65z"/>
<path d="M883 1510 c0 -36 2 -50 4 -32 2 17 2 47 0 65 -2 17 -4 3 -4 -33z"/>
<path d="M949 1357 c-201 -117 -373 -218 -383 -226 -9 -7 -16 -21 -15 -30 0
-11 4 -9 11 7 7 13 17 21 25 18 8 -3 11 -2 8 4 -3 5 3 14 14 19 25 14 34 14
25 0 -4 -8 0 -8 15 0 25 14 28 22 4 15 -15 -5 -15 -3 1 10 23 18 40 21 30 5
-4 -8 0 -7 15 1 12 6 18 16 15 22 -5 7 -2 9 9 5 10 -4 16 -2 14 5 -1 6 4 13
12 16 8 3 11 0 7 -7 -5 -7 -1 -8 10 -4 13 5 14 8 5 11 -8 3 -2 11 16 23 32 21
48 24 37 7 -4 -7 -3 -8 5 -4 6 4 8 12 5 18 -5 8 -1 9 10 5 10 -4 15 -3 11 3
-3 5 3 14 14 19 25 14 34 14 25 0 -4 -8 0 -7 15 1 12 6 19 15 16 20 -8 12 33
33 47 24 7 -4 8 -3 4 4 -4 6 6 18 23 27 35 17 45 19 36 5 -3 -6 1 -7 10 -3 13
5 14 7 3 14 -10 7 -10 9 2 10 8 1 22 1 30 0 12 -2 12 0 2 7 -11 7 -10 10 3 16
24 9 27 8 19 -6 -4 -7 -3 -8 5 -4 6 4 9 11 6 16 -3 5 3 14 14 19 25 14 34 14
25 0 -4 -8 0 -8 15 0 25 14 28 22 4 15 -15 -5 -15 -3 1 10 22 18 41 21 31 6
-3 -6 1 -7 10 -3 12 4 13 8 5 13 -8 5 -7 9 5 14 24 9 27 8 19 -6 -4 -7 -3 -8
5 -4 6 4 9 11 6 16 -3 5 8 16 24 25 38 19 50 19 25 -1 -18 -15 -18 -15 4 -9
46 13 18 -20 -41 -48 -21 -9 -35 -22 -32 -28 5 -7 12 -6 22 2 12 10 16 10 24
-2 7 -11 9 -9 9 9 0 23 19 32 21 10 0 -7 5 -2 11 12 l10 25 9 -24 c5 -13 8
-25 7 -26 -30 -26 -149 -88 -167 -87 -52 4 -98 -17 -126 -58 -36 -52 -25 -63
20 -20 19 19 35 29 35 23 0 -7 -5 -15 -11 -18 -6 -4 -8 -13 -5 -21 9 -23 -4
-41 -27 -40 -12 1 -29 -4 -39 -12 -20 -17 -34 1 -15 20 8 7 12 20 10 29 -3 9
0 27 7 39 11 20 10 21 -9 11 -36 -20 -43 -47 -37 -136 l6 -83 -46 -26 c-51
-28 -54 -30 -54 -18 0 4 18 17 40 30 47 27 58 67 15 56 -14 -3 -25 -4 -25 -1
0 4 11 17 25 31 14 14 25 32 25 41 0 19 2 20 -214 -105 -86 -50 -161 -88 -167
-85 -12 8 -12 35 2 35 14 0 7 42 -8 48 -10 3 -13 -54 -13 -261 l0 -264 24 -11
c21 -9 43 1 190 85 142 81 166 99 166 119 0 13 -2 24 -4 24 -2 0 -38 -21 -80
-46 -42 -26 -80 -44 -83 -40 -4 3 -4 7 -2 9 15 12 152 87 159 87 4 0 10 7 14
15 3 8 3 15 1 15 -4 0 -78 -42 -142 -82 -18 -11 -33 -15 -33 -10 0 6 41 34 90
62 50 28 90 56 90 61 0 9 -45 -14 -133 -69 -22 -13 -41 -21 -45 -18 -7 8 -9 7
96 66 50 29 92 56 92 61 0 14 -4 12 -100 -46 -49 -30 -90 -50 -90 -45 0 5 43
34 95 65 83 49 118 75 101 75 -3 0 -40 -21 -83 -46 -108 -64 -113 -66 -113
-55 0 5 45 34 99 66 87 49 121 78 108 92 -2 2 -61 -30 -131 -72 -70 -41 -130
-75 -133 -75 -2 0 -3 5 -1 10 5 15 262 160 266 150 2 -4 26 2 55 13 65 27 64
26 48 36 -9 6 -10 11 -2 15 15 10 14 47 -1 45 -27 -3 -38 2 -48 22 -9 15 -8
24 1 35 13 16 39 19 39 3 0 -5 -6 -7 -12 -3 -9 5 -9 2 1 -9 28 -35 54 -11 61
55 l5 53 50 8 c57 10 69 0 80 -64 4 -21 11 -37 16 -33 12 7 11 -2 0 -24 -6 -9
-12 -30 -16 -45 -4 -21 -13 -29 -35 -34 -35 -7 -40 -23 -7 -23 12 0 28 9 35
20 7 11 17 20 24 20 6 0 3 -9 -7 -20 -18 -19 -17 -20 7 -20 14 0 37 -9 52 -21
l26 -20 0 241 c0 206 -2 241 -15 246 -9 4 -14 13 -13 22 2 8 -1 16 -7 18 -5 2
-175 -92 -376 -209z m379 -106 c2 -96 -1 -140 -8 -136 -5 3 -10 31 -10 61 0
36 -4 54 -12 55 -9 0 -9 2 -2 5 18 7 -5 63 -39 97 -16 16 -27 30 -25 31 24 14
75 34 83 32 6 -2 11 -61 13 -145z m-418 -114 c0 -7 -19 -23 -42 -34 -24 -12
-67 -36 -95 -53 -29 -17 -53 -26 -53 -21 0 7 172 118 188 121 1 0 2 -6 2 -13z
m130 -22 c6 -8 9 -19 5 -25 -11 -17 -22 -11 -27 15 -6 28 3 32 22 10z m-190
-55 c-14 -11 -28 -20 -33 -20 -4 0 -25 -12 -47 -26 -22 -15 -44 -23 -48 -19
-4 4 -2 9 3 11 6 2 39 21 75 42 66 40 94 46 50 12z m140 10 c0 -5 -22 -21 -50
-35 -61 -31 -66 -20 -7 17 47 29 57 33 57 18z m-125 -37 c-34 -25 -55 -34 -55
-24 0 11 63 50 70 44 3 -3 -4 -11 -15 -20z m-175 -22 c0 -6 -10 -17 -22 -26
-28 -19 -40 1 -12 22 21 15 34 17 34 4z m190 0 c0 -5 -21 -21 -47 -36 -27 -15
-63 -36 -80 -47 -18 -11 -33 -15 -33 -10 0 6 35 31 78 56 88 52 82 49 82 37z
m-256 -196 c-1 -96 1 -175 3 -175 2 0 13 9 25 20 12 10 25 17 30 14 12 -8 -21
-44 -39 -44 -7 0 -13 -6 -13 -14 0 -8 -7 -16 -15 -20 -13 -5 -15 22 -15 206 0
165 3 209 12 200 8 -8 12 -64 12 -187z m176 187 c0 -5 -18 -18 -40 -31 -22
-12 -40 -18 -40 -14 0 5 17 19 38 31 43 25 42 25 42 14z m-110 -36 c0 -8 -31
-36 -41 -36 -14 0 -11 28 4 33 16 7 37 8 37 3z m-21 -68 c-17 -14 -25 -16 -28
-7 -5 15 28 41 42 32 6 -4 0 -14 -14 -25z m21 -27 c0 -5 -11 -16 -25 -25 -19
-13 -25 -13 -25 -3 0 7 5 18 12 25 14 14 38 16 38 3z m53 -41 c-13 -10 -23
-26 -24 -37 0 -16 -1 -16 -8 2 -6 15 -2 26 17 43 13 13 27 20 31 17 3 -4 -4
-15 -16 -25z m-67 -46 c-24 -17 -36 -18 -36 -3 0 19 33 39 45 28 7 -7 4 -15
-9 -25z m14 -23 c0 -6 -10 -17 -22 -26 -28 -19 -40 1 -12 22 21 15 34 17 34 4z
m0 -51 c0 -12 -40 -34 -47 -26 -9 8 17 36 33 36 8 0 14 -4 14 -10z"/>
<path d="M1287 1369 c-9 -6 -15 -15 -12 -20 4 -5 11 -6 17 -3 6 4 8 3 5 -2 -3
-6 -2 -16 4 -24 6 -11 9 -4 9 23 0 20 -1 37 -2 37 -2 0 -11 -5 -21 -11z"/>
<path d="M1976 1488 c-36 -51 -2 -105 36 -59 25 32 24 81 -1 81 -11 0 -27 -10
-35 -22z"/>
<path d="M1866 1428 c-18 -26 -21 -74 -6 -83 25 -15 66 50 55 86 -8 25 -30 24
-49 -3z"/>
<path d="M1763 1372 c-17 -11 -34 -59 -27 -77 15 -38 64 3 64 53 0 32 -12 40
-37 24z"/>
<path d="M1641 1294 c-24 -31 -27 -57 -7 -73 19 -16 58 33 54 68 -4 34 -22 37
-47 5z m29 -17 c0 -7 -6 -22 -14 -32 -13 -18 -13 -17 -11 6 4 38 4 39 15 39 6
0 10 -6 10 -13z"/>
<path d="M1950 1114 c-69 -40 -129 -75 -135 -77 -5 -3 -7 -7 -3 -11 3 -4 71
29 150 75 164 94 157 89 132 88 -10 0 -75 -34 -144 -75z"/>
<path d="M2005 1089 c-149 -85 -151 -87 -144 -94 3 -2 68 32 145 76 154 90
149 87 143 94 -3 2 -67 -32 -144 -76z"/>
<path d="M2040 1055 c-80 -47 -139 -85 -131 -85 18 0 290 152 291 163 0 14
-15 6 -160 -78z"/>
<path d="M2755 1049 c-20 -18 -43 -45 -51 -60 -24 -47 -16 -44 19 7 36 54 76
79 113 70 37 -10 31 -48 -19 -125 -53 -80 -107 -175 -107 -187 0 -5 14 14 30
43 48 83 115 116 144 71 8 -14 -1 -29 -55 -85 -64 -66 -95 -110 -86 -119 3 -3
16 14 30 38 14 24 48 64 76 90 28 26 51 56 51 66 0 30 -26 45 -65 39 -19 -3
-35 -4 -35 -1 0 3 16 28 35 57 39 58 45 101 16 117 -33 17 -59 11 -96 -21z"/>
<path d="M1114 1041 c4 -5 29 -23 57 -41 28 -17 48 -27 45 -21 -4 5 -29 23
-57 41 -28 17 -48 27 -45 21z"/>
<path d="M1294 1028 c60 -83 68 -111 41 -158 -24 -42 -13 -140 15 -140 7 0 8
6 0 19 -13 25 -13 108 0 116 6 3 10 26 10 49 0 34 -8 53 -35 90 -36 46 -63 67
-31 24z"/>
<path d="M2777 1003 c-33 -49 -64 -122 -72 -170 -4 -24 3 -12 20 35 26 76 45
112 79 150 11 12 15 22 9 22 -6 0 -22 -17 -36 -37z"/>
<path d="M1078 952 c2 -37 -3 -98 -11 -135 l-15 -68 32 -24 c56 -43 117 -65
176 -63 l55 1 -65 7 c-67 7 -104 22 -154 63 l-30 24 12 65 c14 74 16 167 4
185 -4 7 -6 -18 -4 -55z"/>
<path d="M1995 889 c-228 -132 -238 -139 -231 -146 5 -5 417 228 441 249 5 5
3 8 -5 8 -8 0 -100 -50 -205 -111z"/>
<path d="M1685 939 c-26 -7 -23 -8 17 -6 43 2 48 0 45 -18 -3 -32 15 -29 29 4
l13 31 -37 -1 c-20 -1 -50 -5 -67 -10z"/>
<path d="M130 912 c-29 -23 -23 -50 25 -120 40 -59 43 -67 16 -52 -11 5 -29
10 -40 10 -20 0 -51 -24 -51 -41 0 -5 30 -41 66 -80 36 -38 74 -88 84 -112 11
-23 20 -36 20 -29 0 28 -42 92 -95 144 -43 42 -56 61 -53 79 2 18 10 25 31 27
23 3 38 -6 74 -43 39 -41 43 -43 28 -16 -9 18 -38 66 -65 108 -55 83 -60 107
-30 123 28 15 58 4 99 -34 27 -24 31 -26 18 -7 -19 29 -66 61 -88 61 -9 0 -27
-8 -39 -18z"/>
<path d="M170 887 c0 -5 11 -23 25 -41 13 -18 36 -57 50 -87 14 -30 22 -43 19
-29 -14 52 -93 185 -94 157z"/>
<path d="M2808 838 c-34 -32 -88 -124 -88 -150 0 -7 13 14 28 47 16 33 46 75
66 93 21 18 36 35 33 38 -2 3 -20 -10 -39 -28z"/>
<path d="M1583 853 c-7 -3 -13 -9 -13 -14 0 -11 53 -10 95 2 26 7 23 8 -17 6
-27 -1 -49 1 -50 4 -2 3 -9 4 -15 2z"/>
<path d="M1110 842 c0 -7 9 -21 20 -32 26 -26 81 -26 111 0 l24 20 -37 -15
c-41 -16 -83 -8 -105 22 -8 10 -13 12 -13 5z"/>
<path d="M1444 728 c-66 -9 -71 -11 -84 -41 -7 -18 -15 -35 -17 -38 -2 -4 2
-9 9 -12 8 -2 47 15 88 39 41 24 85 44 97 44 12 0 25 5 28 10 7 12 -21 11
-121 -2z"/>
<path d="M130 711 c0 -5 9 -12 19 -16 29 -9 89 -103 105 -165 8 -30 15 -45 15
-33 1 36 -36 125 -70 166 -32 39 -69 65 -69 48z"/>
<path d="M1740 681 c0 -59 -14 -74 -139 -146 -75 -43 -121 -75 -121 -85 0 -9
14 -29 31 -46 l31 -29 72 76 c95 98 146 174 146 216 0 17 -4 35 -10 38 -6 4
-10 -6 -10 -24z m-173 -228 c-19 -20 -30 -24 -38 -16 -8 8 -4 15 12 27 39 27
57 20 26 -11z"/>
<path d="M2353 683 c-17 -17 -23 -19 -27 -7 -3 8 -17 14 -31 14 -33 0 -33 -28
0 -36 14 -3 25 -10 25 -15 0 -5 -12 -4 -26 2 -15 5 -29 7 -32 4 -4 -3 4 -8 16
-12 12 -3 22 -9 22 -15 0 -5 -8 -4 -19 2 -30 16 -49 11 -21 -5 l25 -15 -27 6
c-15 3 -34 1 -44 -4 -16 -9 -15 -11 5 -21 12 -7 19 -16 16 -22 -4 -5 4 -13 17
-18 l23 -9 -27 -7 c-16 -4 -36 -4 -45 0 -16 6 -15 8 7 25 l25 18 -29 8 c-36 9
-72 -23 -61 -54 14 -45 118 -37 165 13 12 13 35 27 51 30 27 6 29 10 28 48 -1
23 -4 53 -8 67 l-7 24 -21 -21z m-3 -63 c0 -12 -13 -28 -32 -40 -51 -31 -56
-24 -13 20 21 22 40 40 42 40 2 0 3 -9 3 -20z"/>
<path d="M2679 653 c0 -11 -3 -13 -6 -5 -7 17 -53 15 -60 -4 -4 -10 -8 -12
-13 -5 -8 14 -1 -153 9 -193 9 -37 30 -51 65 -42 39 10 48 43 33 123 l-13 68
-41 -1 c-23 0 -40 3 -37 8 3 4 21 8 40 8 31 0 34 2 34 30 0 32 -9 43 -11 13z
m1 -194 c0 -12 -7 -19 -20 -19 -13 0 -20 7 -20 18 0 11 8 18 20 19 14 1 20 -4
20 -18z"/>
<path d="M1587 642 c-19 -21 -22 -42 -7 -42 16 0 51 40 45 50 -9 15 -20 12
-38 -8z"/>
<path d="M1020 626 c0 -14 3 -17 8 -8 7 9 16 10 41 1 17 -6 34 -10 36 -7 2 2
-16 11 -41 20 -43 15 -44 15 -44 -6z"/>
<path d="M1312 600 c5 -16 -14 -40 -31 -40 -6 0 -11 -4 -11 -10 0 -16 26 -11
51 9 23 19 24 20 5 38 -14 13 -17 14 -14 3z"/>
<path d="M1022 537 c7 -112 62 -161 183 -162 50 0 79 -5 98 -17 14 -10 30 -18
34 -18 4 0 14 -4 21 -9 11 -6 10 -15 -4 -43 -37 -78 25 -187 85 -149 17 11 24
119 9 138 -7 9 -7 13 0 13 6 0 14 -5 17 -10 11 -17 33 8 44 47 9 33 7 39 -27
78 -34 39 -39 41 -57 29 -11 -8 -25 -14 -31 -14 -15 0 -181 97 -189 110 -3 5
8 16 25 25 16 8 30 17 30 19 0 2 -38 2 -83 -1 -63 -3 -93 -1 -122 11 l-37 16
4 -63z m165 -27 c42 -52 183 -124 226 -116 34 7 67 -22 67 -59 0 -36 -19 -32
-135 30 -63 34 -106 52 -110 45 -10 -16 -73 -12 -113 9 -43 22 -58 44 -68 96
l-7 37 59 -7 c48 -6 63 -13 81 -35z m249 -218 c-3 -3 -1 -11 5 -19 14 -16 5
-17 -23 -2 -17 9 -18 13 -7 21 12 8 11 9 -1 5 -8 -2 -16 -18 -18 -35 -2 -24 0
-31 11 -27 7 3 22 -4 33 -16 l19 -23 -24 17 c-18 12 -28 13 -37 6 -21 -18 -35
22 -22 63 10 34 12 36 40 26 16 -6 27 -13 24 -16z"/>
<path d="M650 552 c0 -5 53 -39 117 -75 109 -62 163 -81 163 -57 0 6 -8 10
-18 10 -19 0 -82 32 -181 91 -66 40 -81 45 -81 31z"/>
<path d="M2810 540 c0 -24 -19 -69 -39 -93 -8 -9 -12 -20 -9 -23 10 -9 49 63
55 101 3 19 3 35 -1 35 -3 0 -6 -9 -6 -20z"/>
<path d="M220 445 c0 -2 32 -23 71 -46 52 -30 74 -38 82 -30 8 8 6 11 -6 11
-24 0 -117 48 -117 60 0 6 -7 10 -15 10 -8 0 -15 -2 -15 -5z"/>
<path d="M1544 335 c14 -11 16 -15 5 -15 -21 0 -51 -56 -36 -68 48 -35 158
-92 178 -92 35 0 73 42 64 70 -7 23 -60 60 -86 60 -10 0 -43 14 -74 30 -61 32
-82 38 -51 15z"/>
</g>
</svg>
