<?xml version="1.0" standalone="no"?>
<!DOCTYPE svg PUBLIC "-//W3C//DTD SVG 20010904//EN"
 "http://www.w3.org/TR/2001/REC-SVG-20010904/DTD/svg10.dtd">
<svg version="1.0" xmlns="http://www.w3.org/2000/svg"
 width="300.000000pt" height="225.000000pt" viewBox="0 0 300.000000 225.000000"
 preserveAspectRatio="xMidYMid meet">
<metadata>
Created by potrace 1.10, written by Peter Selinger 2001-2011
</metadata>
<g transform="translate(0.000000,225.000000) scale(0.100000,-0.100000)"
fill="#027b35" stroke="none">
<path d="M2385 2078 c-2 -7 -15 -56 -29 -108 -21 -75 -23 -97 -13 -106 16 -15
237 -144 246 -144 8 0 61 187 61 213 0 12 -235 157 -254 157 -4 0 -9 -6 -11
-12z m38 -84 c18 -9 39 -23 49 -31 14 -13 20 -13 46 1 29 15 32 15 62 -10 29
-25 30 -30 25 -73 -7 -50 -31 -111 -44 -111 -5 0 -14 7 -21 15 -6 8 -15 14
-18 13 -15 -3 -42 15 -42 27 0 7 -8 12 -17 12 -29 -2 -92 26 -98 42 -3 9 -3
12 1 9 3 -4 23 4 43 17 19 14 41 25 48 25 7 0 13 7 13 15 0 8 -3 15 -7 15 -11
0 -90 49 -80 50 4 0 22 -7 40 -16z"/>
<path d="M1444 1937 c-3 -8 -4 -32 -2 -53 3 -34 6 -39 31 -42 28 -3 28 -3 25
50 -3 46 -6 53 -26 56 -13 2 -24 -3 -28 -11z m46 -54 c0 -26 -4 -33 -20 -33
-16 0 -20 7 -20 33 0 26 4 33 20 33 16 0 20 -7 20 -33z"/>
<path d="M1314 1917 c-3 -9 -4 -28 -2 -44 2 -22 8 -28 28 -28 23 0 25 4 25 40
0 34 -3 40 -23 43 -13 2 -24 -3 -28 -11z m46 -7 c0 -5 -8 -11 -17 -11 -17 -1
-17 -2 0 -6 20 -5 23 -43 3 -43 -21 0 -29 17 -22 46 6 23 36 35 36 14z"/>
<path d="M2302 1809 c-18 -12 -32 -23 -30 -24 5 -5 180 -105 183 -105 14 0 74
44 70 50 -3 5 -21 0 -40 -11 l-35 -21 -60 37 c-72 44 -77 51 -54 76 22 25 7
24 -34 -2z"/>
<path d="M1450 1730 c0 -89 1 -91 23 -88 21 3 22 7 22 88 0 81 -1 85 -22 88
-22 3 -23 1 -23 -88z m17 -42 c-2 -18 -4 -6 -4 27 0 33 2 48 4 33 2 -15 2 -42
0 -60z"/>
<path d="M1327 1803 c-4 -3 -7 -57 -7 -119 0 -93 3 -113 16 -118 9 -3 20 -4
25 0 5 3 9 56 9 119 0 94 -3 114 -16 119 -19 7 -19 7 -27 -1z m10 -175 c-2
-24 -4 -5 -4 42 0 47 2 66 4 43 2 -24 2 -62 0 -85z"/>
<path d="M2175 1779 c-16 -10 -25 -19 -20 -19 6 0 17 4 25 10 8 5 19 5 25 0 7
-6 11 -2 12 11 2 23 -3 23 -42 -2z"/>
<path d="M1257 1753 c-10 -9 -9 -101 1 -107 4 -2 6 13 4 35 -4 33 -1 39 15 39
27 0 35 10 22 27 -12 14 -32 17 -42 6z"/>
<path d="M1405 1750 c13 -6 15 -9 5 -9 -12 -1 -15 -16 -15 -71 0 -60 2 -70 17
-70 16 0 18 10 18 80 0 77 -1 80 -22 79 -22 0 -22 -1 -3 -9z"/>
<path d="M2140 1742 c0 -5 18 -17 40 -28 22 -10 40 -22 40 -25 0 -4 -29 -22
-65 -41 l-66 -35 143 -82 143 -83 52 29 c29 15 53 34 53 41 0 15 -27 16 -32 1
-4 -12 -74 -39 -98 -38 -10 0 -11 2 -2 6 6 2 12 13 12 24 0 10 7 19 15 19 8 0
15 7 15 15 0 8 -7 15 -15 15 -8 0 -15 -7 -15 -15 0 -8 -7 -15 -15 -15 -8 0
-15 -7 -15 -15 0 -23 -16 -18 -34 10 -9 14 -21 23 -25 20 -5 -2 -14 2 -21 10
-7 8 -22 15 -34 15 -51 1 -48 17 8 49 60 35 76 34 76 -5 0 -29 25 -32 39 -5 9
16 0 25 -72 67 -122 73 -127 75 -127 66z"/>
<path d="M2492 1655 c-78 -46 -96 -53 -113 -44 -28 14 -39 1 -15 -17 29 -21
55 -17 93 12 28 21 34 23 39 9 4 -8 4 -24 1 -35 -3 -11 -2 -20 3 -20 12 0 28
23 33 50 4 23 4 23 6 -5 1 -21 -7 -35 -26 -51 -47 -38 -19 -37 51 1 36 20 66
39 66 41 0 2 -22 15 -50 29 -53 27 -61 40 -31 50 16 5 51 35 40 35 -2 0 -46
-25 -97 -55z"/>
<path d="M723 1651 c-34 -20 -65 -40 -70 -45 -15 -15 51 7 104 35 61 32 64 31
178 -29 38 -21 71 -45 73 -55 4 -22 -27 -23 -43 0 -7 9 -17 13 -23 9 -18 -11
-14 -36 4 -36 10 0 14 -6 10 -15 -3 -8 -3 -15 0 -15 7 0 104 62 104 66 0 1
-49 30 -108 63 -68 38 -120 61 -138 60 -16 0 -57 -17 -91 -38z"/>
<path d="M1194 1637 c-3 -8 -4 -43 -2 -78 3 -58 5 -64 26 -67 22 -3 23 -2 20
75 -3 65 -6 78 -21 81 -9 2 -20 -3 -23 -11z"/>
<path d="M1623 1635 c-18 -8 -33 -20 -33 -27 0 -10 2 -10 8 -1 4 6 20 17 35
22 36 14 157 14 157 1 0 -5 -12 -11 -27 -11 -25 -2 -26 -2 -5 -6 13 -3 30 -2
39 1 12 5 13 9 3 21 -16 20 -133 20 -177 0z"/>
<path d="M1275 1620 c17 -7 17 -9 3 -9 -14 -1 -18 -10 -18 -40 0 -24 5 -41 14
-44 23 -9 31 10 28 58 -3 39 -7 45 -26 44 -20 0 -20 -1 -1 -9z"/>
<path d="M1650 1588 c-46 -13 -54 -22 -41 -46 8 -15 7 -21 -4 -25 -10 -4 -12
-1 -8 11 6 15 3 14 -15 -2 -26 -23 -29 -68 -6 -91 51 -51 175 -67 244 -30 31
16 33 19 15 25 -11 4 -34 1 -52 -7 -58 -24 -138 -10 -172 31 -12 14 -12 21 -1
44 8 15 13 31 12 35 -1 4 15 15 35 24 70 29 173 -1 173 -50 0 -13 -5 -28 -10
-33 -8 -8 -6 -15 5 -24 22 -18 55 13 55 52 0 71 -123 117 -230 86z"/>
<path d="M273 1580 c-17 -7 -24 -20 -29 -60 -4 -27 -10 -50 -13 -50 -4 0 -15
-6 -24 -12 -15 -12 -15 -18 -1 -77 8 -36 12 -71 10 -78 -3 -7 -1 -13 4 -13 21
0 13 -39 -17 -81 -37 -52 -39 -59 -18 -59 8 0 40 -14 71 -31 70 -40 79 -33 13
9 -27 18 -47 38 -43 44 4 6 -1 8 -15 3 l-21 -6 21 36 c19 32 23 35 32 20 8
-14 64 -45 82 -45 3 0 5 9 5 20 0 11 -6 20 -13 20 -8 0 -24 12 -38 26 l-24 27
33 -17 c18 -9 37 -14 42 -11 6 3 10 -1 10 -9 0 -8 10 -17 23 -19 22 -4 22 -4
0 -6 -18 -1 -23 -9 -28 -48 -3 -27 -7 -58 -9 -70 -2 -13 1 -23 5 -23 5 0 9 23
9 51 0 47 2 51 21 46 14 -4 19 -2 16 8 -3 7 0 18 6 24 14 14 47 15 47 1 0 -6
12 -3 28 6 19 11 22 12 9 1 -17 -14 -16 -17 4 -79 21 -62 23 -64 45 -54 13 6
22 16 20 22 -3 7 -10 40 -17 73 -11 56 -10 63 6 75 26 19 12 44 -30 52 -29 5
-43 1 -75 -20 -32 -21 -44 -24 -60 -16 -11 6 -20 8 -20 5 0 -3 -13 1 -30 10
-16 8 -38 15 -50 15 -15 0 -20 6 -20 25 0 24 15 35 22 15 7 -21 26 7 21 32 -5
24 -7 26 -20 12 -22 -22 -38 -12 -41 27 -3 29 2 39 35 66 21 18 32 33 26 33
-7 0 -13 7 -13 16 0 14 3 14 16 3 16 -13 25 -6 37 26 3 6 8 7 12 3 11 -10 -4
-60 -15 -53 -6 3 -10 -1 -10 -9 0 -10 -9 -16 -21 -16 -18 0 -19 -2 -9 -15 15
-18 59 -20 62 -2 1 15 3 23 13 70 12 59 -21 82 -82 57z"/>
<path d="M598 1573 c-26 -30 -30 -61 -14 -116 25 -86 60 -116 302 -256 l222
-127 -95 -53 c-52 -30 -91 -57 -86 -61 4 -4 137 -82 295 -173 l288 -166 202
117 c153 89 196 118 178 120 -26 4 -91 -28 -132 -66 -26 -24 -28 -24 -29 -6
-1 10 -1 25 0 32 1 6 -7 12 -19 12 -16 0 -20 -6 -20 -30 0 -21 5 -30 16 -30 8
0 12 -4 9 -10 -3 -6 -19 -10 -35 -10 -20 0 -35 -8 -45 -24 -12 -17 -22 -22
-41 -18 -23 4 -25 9 -20 33 5 24 2 29 -14 29 -17 0 -20 -7 -20 -45 0 -34 4
-45 16 -45 8 0 12 -4 9 -10 -10 -17 -57 -10 -110 15 -27 13 -44 24 -37 24 6 1
12 8 12 16 0 18 -40 20 -40 3 -1 -28 -29 39 -31 72 -1 28 -3 30 -6 10 -3 -14
-8 -29 -12 -33 -7 -7 -67 20 -96 43 -11 9 -90 53 -145 81 -20 9 -48 29 -63 44
-18 18 -32 25 -44 21 -30 -12 -6 6 67 49 39 23 67 45 63 50 -5 4 2 3 13 -3 12
-7 34 -26 49 -44 22 -26 35 -32 67 -33 22 -1 42 -6 46 -12 4 -6 16 -12 27 -14
16 -3 9 -11 -33 -37 -29 -18 -57 -30 -63 -27 -5 4 -9 1 -9 -4 0 -18 19 -13 86
25 35 20 64 34 64 31 0 -8 -121 -77 -136 -77 -19 0 -30 30 -15 40 10 5 8 16
-7 46 -26 50 -77 100 -87 84 -4 -6 -5 -12 -4 -13 51 -27 70 -57 73 -116 3 -53
12 -63 49 -56 18 4 42 14 55 22 13 8 31 13 40 11 9 -2 22 3 29 12 10 13 17 12
65 -9 79 -34 89 -35 131 -7 20 14 37 21 37 16 0 -21 30 -9 36 15 4 15 13 25
24 25 10 0 20 7 24 15 8 23 -2 19 -92 -34 l-83 -49 -197 116 c-108 63 -244
141 -300 173 l-104 57 76 42 c42 23 76 43 76 45 0 2 -33 23 -72 46 -134 77
-167 101 -189 135 -23 38 -127 104 -163 104 -13 0 -30 -8 -38 -17z m106 -38
c21 -14 43 -22 49 -18 9 5 9 3 0 -8 -16 -19 2 -40 26 -31 14 5 14 3 3 -11 -14
-17 -7 -61 8 -52 5 3 36 -13 70 -34 34 -22 70 -43 80 -46 46 -14 23 -65 -37
-81 -33 -9 -146 54 -140 78 4 15 2 16 -14 8 -72 -39 -190 138 -134 200 24 26
45 25 89 -5z"/>
<path d="M619 1526 c-28 -60 41 -176 103 -176 17 0 27 4 23 10 -3 6 -1 10 4
10 6 0 11 18 11 41 0 22 -3 39 -7 37 -5 -2 -21 -10 -36 -18 -28 -13 -30 -13
-58 19 -16 19 -29 37 -29 42 0 19 13 39 26 39 21 0 28 -28 13 -47 -12 -14 -10
-14 21 2 l34 18 -28 23 c-35 31 -63 31 -77 0z m126 -132 c0 -27 -37 -29 -61
-3 -19 22 -19 22 3 17 13 -4 26 -2 29 3 9 16 29 4 29 -17z"/>
<path d="M712 1482 c-7 -5 -10 -16 -6 -25 5 -13 10 -14 25 -7 10 6 16 17 13
25 -7 17 -13 18 -32 7z"/>
<path d="M1382 1553 c-19 -8 -4 -23 24 -23 16 0 24 5 22 13 -5 13 -26 18 -46
10z"/>
<path d="M811 1506 c2 -2 67 -40 144 -85 77 -45 147 -85 155 -90 17 -11 467
-271 804 -465 120 -69 226 -126 236 -126 36 0 55 26 55 77 -1 93 8 85 -275
248 -230 132 -259 151 -243 163 10 7 24 10 31 7 8 -3 103 -57 213 -121 127
-73 209 -128 227 -150 25 -30 30 -33 36 -18 7 19 -44 79 -76 90 -10 3 -18 12
-18 20 0 8 -4 12 -10 9 -13 -8 -90 32 -97 50 -3 8 -12 15 -21 15 -23 0 -202
103 -202 117 0 13 39 43 55 43 5 0 1 -7 -9 -15 -11 -8 -15 -15 -9 -15 14 0 35
25 27 33 -4 3 6 9 21 13 31 8 120 -29 110 -46 -3 -5 0 -8 7 -5 7 3 36 -9 63
-27 28 -18 69 -42 93 -52 24 -11 48 -28 53 -38 5 -10 17 -18 26 -18 26 0 79
-38 104 -74 13 -19 29 -32 36 -29 7 3 13 1 13 -4 0 -5 -29 -27 -65 -48 l-65
-38 0 -143 c0 -79 2 -144 4 -144 2 0 35 18 72 40 38 22 74 40 81 40 7 0 13 4
13 8 0 5 31 26 70 48 l70 39 0 147 0 147 -82 -49 c-73 -43 -84 -47 -93 -33
-34 55 -83 92 -253 189 -103 59 -195 113 -205 119 -15 11 -4 20 93 75 61 34
109 65 106 67 -5 5 -107 -54 -473 -273 l-122 -73 -148 86 c-402 234 -442 260
-431 271 9 9 9 12 1 12 -7 0 -15 -4 -18 -10 -4 -6 -19 -4 -42 5 -32 14 -72 21
-62 11z m881 -335 c17 -11 35 -18 38 -16 4 3 7 -5 6 -16 -1 -20 -74 -69 -103
-69 -14 0 -103 48 -103 56 0 2 24 -8 53 -22 l52 -26 48 27 c26 15 46 29 44 32
-3 2 -20 -5 -38 -16 -43 -26 -77 -26 -109 0 l-25 20 38 -18 c36 -16 39 -16 79
4 l43 20 -33 17 c-17 9 -32 19 -32 21 0 9 9 5 42 -14z m-37 -20 c6 -11 -29
-33 -39 -24 -7 7 12 33 25 33 4 0 10 -4 14 -9z m157 -63 l28 -19 -28 -25 -27
-25 38 22 c40 23 68 21 102 -6 18 -14 16 -14 -13 0 -37 18 -79 13 -52 -6 12
-9 12 -10 -3 -5 -16 5 -77 -17 -77 -28 0 -2 11 -11 24 -20 23 -14 27 -14 70
10 48 27 65 26 105 -5 l25 -19 -42 -21 -41 -21 -36 21 c-20 12 -38 19 -41 17
-2 -3 26 -21 64 -41 l68 -36 49 29 49 28 -37 22 c-49 29 -47 36 3 10 42 -21
51 -43 24 -54 -9 -4 -14 -9 -11 -12 3 -3 14 -1 26 5 32 18 89 -15 97 -56 3
-18 4 -39 1 -47 -16 -42 -175 30 -160 72 5 14 3 15 -8 5 -21 -21 -36 -16 -141
43 -79 45 -99 61 -95 75 4 15 2 17 -13 9 -13 -7 -26 -4 -51 13 -45 30 -46 43
-4 62 19 10 38 21 40 26 7 10 31 2 67 -23z m698 -77 c0 -10 3 -32 6 -48 4 -23
2 -32 -11 -37 -12 -4 -18 0 -22 14 -3 11 -12 20 -20 20 -13 0 -15 -10 -11 -51
5 -49 4 -52 -24 -68 -57 -31 -61 -36 -54 -65 4 -17 11 -24 19 -19 8 4 7 1 -2
-10 -25 -31 -42 -21 -35 20 5 33 4 36 -10 24 -9 -8 -18 -12 -19 -10 -1 2 -1
37 1 77 l4 73 54 30 c30 17 59 40 65 50 13 26 59 26 59 0z m-217 -132 c-3 -22
-1 -29 7 -24 14 9 -10 -36 -25 -47 -18 -14 -21 -9 -21 37 0 33 4 44 13 41 7
-3 12 -2 12 2 -2 14 1 22 10 22 5 0 7 -14 4 -31z m207 -8 c0 -32 -17 -50 -77
-80 -59 -30 -54 -18 7 16 46 26 50 31 50 66 0 23 4 36 10 32 6 -3 10 -19 10
-34z m-194 -92 c14 -15 16 -24 8 -37 -26 -40 -57 -13 -46 41 5 22 15 22 38 -4z"/>
<path d="M1125 1490 c-8 -26 1 -40 26 -40 25 0 35 25 19 45 -17 21 -37 19 -45
-5z"/>
<path d="M380 1382 c0 -28 6 -41 23 -51 33 -21 70 -19 90 6 26 32 21 37 -18
13 -42 -26 -51 -21 -66 30 -15 50 -29 51 -29 2z"/>
<path d="M1400 1385 c-30 -19 -49 -35 -42 -35 7 0 10 -5 6 -11 -5 -8 -1 -8 14
0 29 16 37 14 21 -6 -13 -15 -12 -15 8 -2 14 8 18 16 11 20 -6 4 6 16 30 28
23 12 42 24 42 27 0 2 -9 0 -19 -6 -29 -15 -39 -12 -17 5 37 28 1 15 -54 -20z"/>
<path d="M1525 1360 c-3 -6 1 -7 9 -4 28 11 17 -5 -14 -21 -34 -18 -44 -19
-34 -4 3 6 -8 3 -25 -5 -17 -9 -31 -19 -31 -22 0 -2 9 0 19 6 28 14 39 12 18
-4 -16 -13 -16 -14 -1 -20 10 -4 22 -2 28 4 8 8 5 9 -9 5 -20 -7 -20 -6 -1 9
22 18 40 21 31 6 -3 -5 -2 -10 3 -10 14 0 33 26 25 33 -3 4 2 10 11 13 14 5
15 9 4 15 -17 11 -26 11 -33 -1z"/>
<path d="M304 1313 c2 -13 12 -18 34 -17 17 0 30 -4 29 -9 -4 -19 19 -16 32 4
11 19 11 21 -3 16 -9 -4 -16 -2 -16 4 0 5 -11 7 -24 3 -13 -3 -27 -1 -30 5
-11 17 -25 13 -22 -6z"/>
<path d="M1988 1233 c8 -3 -3 -16 -29 -35 l-41 -30 22 -15 c23 -16 25 -16 94
12 15 6 17 5 11 -5 -5 -9 -4 -11 4 -6 6 4 9 11 6 16 -3 5 0 12 6 16 12 7 -56
55 -76 53 -5 0 -4 -3 3 -6z m52 -30 c0 -5 -19 -18 -42 -31 -51 -27 -73 -14
-26 16 33 22 68 29 68 15z"/>
<path d="M2167 1094 c-15 -8 -33 -12 -39 -8 -7 5 -8 3 -4 -5 5 -7 15 -10 23
-6 13 4 14 3 4 -9 -7 -8 -20 -12 -29 -9 -9 3 0 -7 20 -23 43 -33 72 -70 64
-82 -3 -5 1 -9 9 -9 19 0 19 7 0 34 -14 20 -13 23 28 45 l43 24 16 -20 c10
-12 17 -16 18 -10 0 18 -87 94 -107 94 -10 -1 -30 -8 -46 -16z m92 -21 c22
-18 22 -18 -24 -42 -44 -23 -46 -23 -65 -6 -20 18 -20 18 17 41 46 28 46 28
72 7z"/>
<path d="M360 1060 c8 -6 27 -7 43 -4 18 4 39 -1 62 -15 19 -11 35 -18 35 -16
0 3 -15 14 -32 25 -34 21 -139 30 -108 10z"/>
<path d="M525 1050 c-4 -6 -12 -7 -18 -3 -8 5 -8 2 0 -9 7 -8 11 -18 8 -21 -3
-4 -2 -5 1 -3 3 3 16 1 28 -4 20 -7 58 3 46 12 -32 24 -60 36 -65 28z"/>
<path d="M1334 1029 l-19 -22 30 15 c17 9 37 18 45 21 9 3 5 6 -11 6 -15 1
-34 -8 -45 -20z"/>
<path d="M2581 933 c-2 -57 21 -86 56 -70 27 12 46 62 33 87 -8 14 -49 30 -80
30 -4 0 -8 -21 -9 -47z m49 -35 c0 -27 -19 -22 -30 8 -14 35 -13 36 10 22 11
-7 20 -21 20 -30z"/>
<path d="M1690 905 c0 -8 9 -15 20 -15 11 0 20 7 20 15 0 8 -9 15 -20 15 -11
0 -20 -7 -20 -15z"/>
<path d="M665 890 c-7 -12 -80 -52 -110 -60 -14 -4 -20 -15 -21 -39 -1 -19 2
-28 6 -21 4 7 14 -14 25 -53 10 -39 24 -68 34 -71 9 -3 22 -9 29 -12 9 -4 12
7 12 40 0 52 18 62 44 24 9 -12 16 -17 16 -10 0 15 30 16 50 1 12 -8 10 -9 -9
-4 -15 5 -26 2 -32 -6 -6 -11 -14 -8 -33 11 l-26 23 0 -46 c0 -34 -4 -47 -14
-47 -8 0 -18 5 -21 10 -10 16 -28 11 -21 -6 3 -9 9 -28 11 -42 6 -26 5 -26 -9
3 l-15 30 6 -30 c9 -44 21 -73 23 -55 1 8 10 -3 20 -25 l19 -40 -1 38 c-1 20
-7 42 -15 48 -19 17 -17 53 3 45 9 -3 18 -6 20 -6 3 0 2 -5 -2 -11 -5 -8 -1
-8 14 0 29 16 34 14 22 -9 -9 -16 -8 -18 5 -14 20 8 88 -44 81 -62 -3 -7 -1
-16 4 -19 6 -4 10 -1 10 4 0 6 4 11 10 11 5 0 6 -7 3 -17 -4 -11 -3 -14 5 -9
20 12 14 43 -46 241 -42 137 -62 191 -74 193 -9 2 -19 -2 -23 -8z m28 -101
c22 -66 21 -72 -4 -64 -30 10 -69 -3 -69 -23 -1 -12 -6 -8 -16 11 -9 17 -12
35 -8 45 8 17 11 28 13 48 1 11 37 32 57 33 6 1 18 -22 27 -50z m48 -154 c4
-11 8 -30 8 -43 l1 -22 -40 26 c-53 35 -55 60 -4 59 17 0 30 -7 35 -20z"/>
<path d="M1630 875 c0 -8 9 -15 20 -15 11 0 20 7 20 15 0 8 -9 15 -20 15 -11
0 -20 -7 -20 -15z"/>
<path d="M1420 815 c0 -8 9 -15 20 -15 11 0 20 7 20 15 0 8 -9 15 -20 15 -11
0 -20 -7 -20 -15z"/>
<path d="M2708 795 c-18 -61 -18 -75 -3 -75 22 0 28 22 17 61 -7 28 -10 30
-14 14z"/>
<path d="M2545 707 c-10 -16 -20 -80 -30 -208 -8 -101 -17 -210 -20 -241 -5
-52 -4 -58 13 -58 16 0 22 14 36 79 10 44 16 85 15 93 -4 16 29 116 40 122 4
3 14 -46 21 -109 9 -82 16 -115 26 -115 22 0 26 39 24 205 0 11 6 53 14 93 7
39 10 72 5 72 -4 0 -30 -13 -56 -30 -62 -39 -126 -40 -78 0 12 10 12 15 -2 36
-10 16 -12 28 -6 37 12 15 24 47 18 47 -3 0 -11 -10 -20 -23z m93 -169 c-2
-16 -9 -22 -23 -21 -10 1 -27 -3 -37 -8 -14 -8 -18 -6 -18 10 0 12 10 23 28
29 43 16 54 14 50 -10z"/>
<path d="M513 447 c-51 -29 -93 -54 -93 -57 0 -3 46 -31 103 -62 56 -32 119
-68 140 -80 36 -21 39 -21 65 -6 24 15 27 23 30 81 3 74 -11 97 -44 72 -18
-14 -18 -15 6 -12 23 2 25 -2 28 -45 3 -44 1 -48 -29 -64 -30 -15 -35 -15 -67
0 -19 9 -36 26 -39 37 -4 15 -11 19 -28 15 -17 -4 -25 0 -33 20 -19 39 -15 48
31 73 36 20 43 28 39 48 -2 13 -7 25 -11 27 -3 2 -48 -19 -98 -47z"/>
<path d="M716 464 c-3 -9 -13 -14 -20 -11 -8 3 -17 1 -20 -6 -3 -9 -8 -8 -16
3 -9 12 -10 9 -5 -15 10 -44 18 -48 58 -25 20 12 40 19 45 16 4 -2 9 -24 11
-48 1 -23 4 -45 7 -47 3 -3 4 16 3 42 -3 56 1 61 33 46 19 -8 24 -17 20 -35
-3 -17 0 -24 12 -24 9 0 16 7 16 15 0 19 14 19 30 0 10 -12 8 -16 -15 -25 -14
-5 -30 -10 -34 -10 -5 0 -14 -7 -22 -16 -7 -8 -21 -13 -31 -11 -14 4 -18 -1
-18 -19 0 -13 2 -24 4 -24 2 0 45 25 96 55 51 30 98 56 104 58 15 6 13 7 -71
55 -40 22 -73 37 -73 32 0 -4 25 -22 56 -40 31 -17 54 -34 51 -37 -3 -3 -32
10 -63 28 -32 18 -69 34 -83 35 -14 2 -27 8 -29 14 -6 16 -39 12 -46 -6z"/>
<path d="M670 340 c0 -13 -5 -18 -15 -14 -10 4 -15 0 -15 -15 0 -17 6 -21 30
-21 28 0 30 3 30 35 0 24 -5 35 -15 35 -8 0 -15 -9 -15 -20z"/>
<path d="M2624 244 c3 -9 6 -20 6 -25 0 -5 7 -9 16 -9 8 0 13 -4 10 -9 -3 -4
4 -17 16 -27 20 -18 21 -18 15 -1 -4 10 -3 16 1 15 59 -29 123 -50 129 -44 3
2 -36 23 -86 47 -50 23 -91 48 -91 56 0 7 -5 13 -11 13 -6 0 -8 -7 -5 -16z"/>
<path d="M2420 171 c0 -7 75 -41 93 -41 4 0 7 7 7 15 0 8 -7 15 -15 15 -8 0
-15 5 -15 10 0 6 -16 10 -35 10 -19 0 -35 -4 -35 -9z"/>
<path d="M2527 140 c-4 -17 5 -26 54 -50 69 -35 73 -36 57 -10 -7 11 -20 20
-28 20 -8 0 -26 9 -40 20 l-25 20 50 -6 c28 -3 57 -7 66 -8 9 -2 16 2 16 9 0
7 -10 12 -21 12 -12 -1 -44 2 -72 6 -47 7 -52 5 -57 -13z"/>
</g>
</svg>
