<svg xmlns="http://www.w3.org/2000/svg" version="1.0" preserveAspectRatio="xMidYMid meet" viewBox="101.92 9.9 93.58 99.06">
<metadata>
Created by potrace 1.10, written by Peter Selinger 2001-2011
</metadata>
<g transform="translate(0.000000,171.000000) scale(0.100000,-0.100000)" stroke="none">
<path d="M1050 1581 c-24 -23 -30 -38 -30 -71 0 -43 20 -83 48 -96 9 -5 137 -11 283 -14 l266 -5 41 -27 c140 -93 127 -305 -24 -381 -20 -10 -66 -17 -131 -19 -115 -4 -147 -18 -161 -72 -13 -46 -5 -81 26 -112 26 -25 28 -25 152 -22 101 3 136 8 183 27 85 33 168 114 214 209 37 74 38 79 38 187 0 108 -1 113 -37 186 -46 93 -112 158 -206 202 l-67 32 -283 3 -282 3 -30 -30z m575 -14 c119 -38 207 -105 248 -190 44 -92 51 -120 52 -202 0 -67 -4 -89 -28 -136 -15 -31 -27 -60 -27 -65 -1 -19 -78 -92 -135 -126 -49 -30 -76 -39 -145 -48 -113 -15 -179 -8 -202 20 -23 29 -23 52 1 81 17 21 30 25 118 29 75 4 109 11 144 29 44 22 99 82 129 140 15 28 16 137 2 154 -5 7 -12 24 -15 38 -8 32 -72 100 -118 124 -30 16 -68 20 -299 24 -146 3 -270 9 -276 13 -14 9 -25 63 -18 83 16 40 49 45 299 43 132 -1 253 -6 270 -11z" fill="#027b35"/>
<path d="M1146 1295 c-47 -17 -93 -59 -112 -104 -19 -45 -20 -507 -1 -532 36 -47 105 -52 148 -10 l29 29 0 186 0 186 29 32 29 33 146 3 145 3 26 31 c36 42 33 82 -9 124 l-34 34 -178 0 c-126 -1 -191 -5 -218 -15z m381 -26 c33 -12 43 -26 43 -61 0 -51 -19 -58 -153 -58 -135 0 -173 -11 -211 -63 -19 -26 -21 -47 -26 -212 -6 -204 -10 -218 -69 -218 -60 0 -61 2 -61 262 l0 237 26 40 c29 45 54 64 99 75 48 11 321 10 352 -2z" fill="#7d5848" />
</g>
</svg>