<?xml version="1.0" standalone="no"?>
<!DOCTYPE svg PUBLIC "-//W3C//DTD SVG 20010904//EN"
 "http://www.w3.org/TR/2001/REC-SVG-20010904/DTD/svg10.dtd">
<svg version="1.0" xmlns="http://www.w3.org/2000/svg"
 width="300.000000pt" height="200.000000pt" viewBox="0 0 300.000000 200.000000"
 preserveAspectRatio="xMidYMid meet">
<metadata>
Created by potrace 1.10, written by Peter Selinger 2001-2011
</metadata>
<g transform="translate(0.000000,200.000000) scale(0.100000,-0.100000)"
fill="#027b35" stroke="none">


<path d="M2055 1785 c-22 -8 -68 -22 -102 -32 l-63 -18 71 -44 c67 -41 71 -42
84 -25 8 11 14 26 14 34 0 12 -2 12 -13 -2 -17 -23 -27 -23 -73 5 l-38 22 53
3 c36 2 62 -2 78 -12 31 -21 35 -20 28 8 -3 15 1 34 11 50 20 30 12 32 -50 11z
m16 -30 c0 -6 -27 -11 -58 -12 l-58 -1 50 13 c55 14 67 14 66 0z"/>
<path d="M1888 1640 c-26 -5 -52 -11 -57 -15 -17 -10 -14 -174 3 -181 7 -3 46
-1 87 3 l74 8 0 95 0 95 -30 2 c-16 0 -51 -3 -77 -7z m92 -41 c0 -27 -2 -30
-15 -19 -8 7 -15 8 -15 2 0 -5 6 -15 14 -21 17 -14 27 -59 15 -67 -5 -3 -9 4
-9 16 0 34 -53 80 -91 80 -25 0 -30 3 -21 12 9 9 21 9 48 0 28 -8 34 -8 26 0
-19 19 -14 28 18 28 27 0 30 -3 30 -31z m-49 -48 c16 -16 29 -37 29 -45 0 -26
-15 -18 -27 13 -8 23 -20 32 -52 41 -49 13 -52 20 -10 20 20 0 40 -10 60 -29z
m-18 -19 c10 -9 16 -24 14 -34 -4 -14 1 -18 21 -18 34 0 25 -7 -19 -14 -48 -7
-89 22 -89 65 0 27 2 29 28 23 15 -4 35 -14 45 -22z"/>
<path d="M685 1618 c-8 -5 -15 -20 -15 -33 0 -16 -6 -25 -15 -25 -8 0 -15 -4
-15 -10 0 -5 -9 -10 -19 -10 -15 0 -20 -10 -26 -49 -9 -64 0 -94 26 -86 15 5
19 2 19 -14 0 -12 7 -21 15 -21 10 0 15 -10 15 -27 0 -33 9 -26 12 10 2 26 4
27 69 27 37 0 74 3 83 6 13 5 16 -2 17 -32 2 -32 3 -34 6 -11 3 16 11 31 19
34 8 3 14 11 14 19 0 8 8 14 18 14 9 1 105 5 212 11 107 5 209 9 227 9 25 0
33 5 42 27 l11 28 -5 -28 c-4 -21 -2 -28 7 -24 19 6 10 38 -18 67 -29 29 -101
38 -334 39 -164 1 -190 6 -190 32 0 10 -6 21 -12 26 -22 14 -147 30 -163 21z
m153 -46 c7 -9 18 -24 25 -32 7 -9 10 -26 7 -40 -4 -14 -3 -37 1 -52 5 -18 3
-31 -6 -38 -18 -15 -122 -25 -168 -16 -32 6 -35 9 -35 41 0 19 4 32 9 29 5 -3
7 -9 5 -13 -3 -4 -1 -13 3 -20 5 -7 8 0 9 20 1 40 -7 56 -19 38 -6 -10 -8 -5
-7 13 1 15 9 30 16 33 8 3 11 12 8 21 -4 9 -1 23 6 31 17 21 128 10 146 -15z
m-198 -103 c0 -31 -4 -48 -10 -44 -5 3 -10 26 -10 51 0 24 5 44 10 44 6 0 10
-23 10 -51z m554 41 c117 0 147 -3 138 -12 -7 -7 -12 -21 -12 -33 0 -19 -6
-20 -193 -23 -105 -1 -202 -4 -214 -7 -21 -5 -23 -2 -23 41 l0 47 77 -7 c42
-3 144 -6 227 -6z m176 -40 c0 -11 -6 -20 -14 -20 -18 0 -29 16 -21 30 11 18
35 11 35 -10z"/>
<path d="M1663 1514 c-2 -7 -3 -29 -1 -50 l3 -39 50 0 50 0 3 53 3 53 -52 -3
c-28 -2 -54 -8 -56 -14z m97 -38 c0 -31 -3 -34 -34 -38 -47 -5 -56 0 -56 32 0
31 10 38 58 39 30 1 32 -1 32 -33z"/>
<path d="M1696 1483 c-11 -27 -6 -33 25 -33 26 0 30 3 27 23 -3 25 -43 33 -52
10z"/>
<path d="M1567 1363 c-14 -14 -6 -22 16 -16 12 4 96 9 187 13 l165 6 -181 2
c-99 1 -184 -1 -187 -5z"/>
<path d="M2110 1360 c14 -4 69 -8 122 -9 l97 -1 4 -42 c4 -39 4 -38 3 7 l-1
50 -125 2 c-75 0 -115 -2 -100 -7z"/>
<path d="M1929 1337 c-92 -61 -89 -189 7 -244 61 -35 122 -27 174 22 l25 24
113 -54 c141 -68 162 -74 162 -47 0 15 -10 24 -37 32 -21 6 -51 18 -68 25 -16
7 -60 23 -97 36 -36 13 -64 27 -61 32 10 17 4 96 -11 125 -36 69 -140 94 -207
49z m170 -43 c31 -33 33 -40 29 -86 -9 -91 -92 -137 -174 -97 -93 45 -94 173
-1 215 52 23 106 11 146 -32z"/>
<path d="M2022 1253 c-1 -36 -6 -51 -14 -49 -7 1 -10 1 -5 -1 4 -3 7 -23 7
-46 0 -28 3 -38 10 -31 7 7 9 45 7 95 -2 52 -4 64 -5 32z"/>
<path d="M2070 1222 c0 -40 4 -61 10 -57 13 8 13 85 0 105 -7 11 -10 -4 -10
-48z"/>
<path d="M1950 1188 c0 -27 5 -48 10 -48 13 0 13 60 0 80 -7 11 -10 2 -10 -32z"/>
<path d="M2226 1323 c-11 -12 -6 -20 20 -31 14 -7 22 -17 19 -22 -3 -6 -2 -10
3 -10 8 0 22 22 22 36 0 8 -58 33 -64 27z"/>
<path d="M1330 1257 c0 -50 2 -55 20 -50 14 4 20 13 19 32 -2 23 -2 24 -6 3
-5 -26 -23 -20 -23 9 0 13 7 19 21 19 28 0 21 34 -9 38 -20 3 -22 0 -22 -51z"/>
<path d="M1391 1243 c0 -53 2 -63 10 -45 5 13 6 35 3 48 -6 24 -6 24 70 24 62
0 76 -3 76 -15 0 -9 -7 -18 -16 -22 -12 -4 -13 -8 -3 -14 9 -5 14 -34 14 -88
1 -49 7 -86 15 -96 11 -13 54 -15 334 -15 285 1 369 6 340 22 -5 3 -153 1
-329 -4 -176 -4 -326 -6 -333 -3 -10 4 -12 36 -10 140 l3 135 -87 0 -88 0 1
-67z"/>
<path d="M789 1290 c-119 -3 -171 -9 -182 -19 -15 -12 -16 -55 -10 -480 3
-256 10 -474 15 -484 8 -15 3 -17 -41 -17 -27 0 -53 -5 -56 -11 -4 -5 -19 -8
-33 -5 -15 3 -48 7 -73 8 l-46 2 -2 80 c-1 44 -5 84 -8 90 -4 6 -7 67 -8 136
-1 69 -5 135 -9 148 l-8 22 123 0 c67 0 120 2 118 4 -2 2 -53 6 -114 10 -60 3
-111 5 -112 6 -2 0 -3 9 -3 19 0 24 20 38 30 21 5 -8 9 -9 11 -1 2 6 42 13 89
17 47 4 87 8 89 10 2 2 -45 4 -106 4 -86 0 -113 -3 -123 -15 -10 -12 -11 -74
-5 -277 4 -145 11 -271 16 -280 8 -15 24 -18 89 -18 64 0 80 -3 80 -15 0 -29
39 -35 234 -35 l195 0 3 143 3 142 450 0 450 0 -3 -143 -2 -144 55 4 c44 2 56
0 60 -13 5 -14 31 -18 181 -24 199 -8 253 -4 272 22 17 24 16 386 -2 380 -7
-2 -13 -66 -16 -198 -3 -107 -7 -169 -8 -140 -2 43 -5 52 -14 43 -7 -7 -34
-12 -60 -12 l-48 0 0 -39 c0 -22 -4 -43 -10 -46 -6 -4 -10 11 -10 38 l0 45
-126 4 c-76 2 -128 8 -132 15 -10 16 2 545 12 562 7 11 36 13 155 7 217 -9
221 -10 242 -37 11 -15 19 -19 19 -10 0 11 4 11 18 -2 10 -10 23 -17 29 -17 5
0 17 -18 26 -40 l15 -40 -29 0 c-17 0 -28 -4 -24 -10 3 -5 13 -7 23 -4 12 4
11 0 -5 -14 -13 -11 -23 -28 -23 -39 0 -14 6 -11 26 15 14 17 29 32 33 32 5 0
18 -22 29 -50 l21 -49 -62 -4 -62 -3 65 -2 65 -2 19 -46 c10 -25 16 -47 14
-49 -2 -2 -34 -5 -72 -7 -50 -2 -69 1 -76 12 -20 32 -8 -4 56 -156 69 -167 81
-190 69 -137 l-7 33 72 0 c71 0 72 -1 83 -30 6 -16 15 -30 20 -30 5 0 7 6 4
13 -3 6 -49 112 -101 235 -53 123 -96 225 -96 228 0 2 -13 33 -30 69 -16 36
-29 71 -27 78 1 7 -7 11 -19 9 -15 -2 -23 4 -27 19 -3 11 -9 19 -14 16 -5 -3
-9 11 -9 31 -1 20 -11 62 -23 93 -18 47 -25 56 -41 52 -18 -5 -18 -8 10 -64
35 -69 35 -69 11 -69 -36 0 -51 11 -46 34 3 11 1 44 -4 71 -5 28 -9 40 -10 27
0 -13 -5 -20 -11 -17 -12 8 -3 -81 12 -112 6 -13 8 -26 4 -30 -4 -4 -9 3 -13
15 -3 12 -9 22 -14 22 -5 0 -9 36 -9 80 0 64 -3 80 -15 80 -12 0 -15 -15 -15
-78 l0 -78 -136 4 c-75 3 -139 0 -144 -4 -5 -5 -12 -136 -16 -291 l-7 -283
-44 0 c-39 0 -44 2 -42 23 1 12 1 52 1 88 -2 64 -3 67 -32 79 -22 9 -132 11
-451 8 l-422 -5 -19 -23 c-16 -19 -18 -35 -14 -97 l5 -75 -59 4 c-59 3 -59 3
-37 -14 12 -10 34 -18 50 -18 15 0 27 -4 27 -8 0 -15 -24 -32 -46 -32 -27 0
-39 15 -22 27 8 5 -1 10 -27 13 -24 3 -39 10 -38 18 2 7 -7 12 -22 12 -18 0
-23 -4 -19 -15 4 -9 0 -15 -10 -15 -9 0 -16 7 -16 15 0 10 -10 15 -30 15 -23
0 -31 5 -34 22 -3 13 -7 214 -9 446 -5 398 -4 425 13 442 20 20 121 26 485 33
159 3 180 5 183 20 3 15 -13 17 -180 15 -101 -1 -258 -5 -349 -8z m1416 -410
c4 -6 -12 -10 -39 -10 -25 0 -46 5 -46 10 0 6 18 10 39 10 22 0 43 -4 46 -10z
m422 -470 l22 -50 -74 0 c-71 0 -75 1 -88 28 -37 71 -36 72 45 72 l73 0 22
-50z m49 -119 l23 -51 -75 0 -75 0 -19 46 c-11 25 -20 49 -20 54 0 4 32 7 72
5 l72 -3 22 -51z m-669 -36 c15 -5 65 -9 111 -10 76 -2 103 -8 90 -20 -8 -8
-211 -9 -236 -1 -18 6 -22 15 -22 49 l1 42 14 -26 c8 -15 27 -30 42 -34z
m-1323 35 c44 -16 33 -40 -18 -40 -24 0 -52 3 -61 6 -14 6 -12 10 12 25 33 22
34 22 67 9z m93 -24 c-3 -10 -11 -11 -49 -7 -6 0 -3 7 7 15 21 15 48 10 42 -8z
m1153 11 c0 -8 -3 -17 -6 -20 -10 -9 -46 12 -39 24 9 14 45 11 45 -4z m425
-48 c-8 -12 -62 -12 -70 0 -3 5 9 11 27 13 38 4 51 0 43 -13z"/>
<path d="M1772 1183 c-1 -70 2 -113 8 -113 6 0 10 14 10 30 0 23 4 30 20 30
15 0 20 -7 20 -25 0 -14 5 -25 10 -25 6 0 10 14 10 30 0 27 -3 30 -30 30 -34
0 -38 10 -43 100 -2 30 -4 4 -5 -57z"/>
<path d="M1720 1253 c0 -51 -11 -73 -35 -73 -14 0 -25 7 -28 18 -3 9 -5 -16
-6 -55 -1 -43 3 -73 9 -73 6 0 10 23 10 50 0 43 3 50 20 50 17 0 20 -7 20 -50
0 -27 5 -50 10 -50 6 0 10 42 10 105 0 58 -2 105 -5 105 -3 0 -5 -12 -5 -27z"/>
<path d="M2290 1237 l-25 -10 30 -6 c25 -5 33 -15 51 -59 20 -50 22 -52 28
-28 8 31 -15 91 -41 104 -12 6 -27 6 -43 -1z"/>
<path d="M2234 1222 c-17 -11 -24 -61 -7 -55 7 3 13 13 13 23 0 10 5 20 12 22
7 3 8 7 2 11 -5 3 -15 3 -20 -1z"/>
<path d="M1603 1145 c0 -33 2 -45 4 -27 2 18 2 45 0 60 -2 15 -4 0 -4 -33z"/>
<path d="M1321 1166 c-18 -21 3 -56 34 -56 29 0 39 14 31 46 -7 28 -46 33 -65
10z m47 -19 c2 -10 -3 -17 -12 -17 -18 0 -29 16 -21 31 9 14 29 6 33 -14z"/>
<path d="M388 1153 c-20 -10 -66 -46 -102 -80 l-66 -62 25 -17 c21 -14 37 -15
93 -9 118 15 161 10 195 -22 27 -26 29 -26 17 -5 -20 41 -73 55 -175 49 -49
-3 -99 -2 -110 3 -11 5 -14 9 -8 9 7 1 37 23 67 51 90 81 136 96 197 64 38
-19 50 -12 17 10 -39 25 -107 29 -150 9z"/>
<path d="M1304 1098 c-4 -6 -6 -31 -5 -55 1 -26 -5 -53 -14 -66 -8 -12 -15
-30 -15 -41 0 -10 -26 -43 -57 -74 -63 -60 -55 -59 25 3 32 25 51 48 52 61 0
12 9 33 21 48 19 24 20 31 10 72 -6 25 -9 49 -6 55 4 5 4 9 1 9 -3 0 -8 -5
-12 -12z"/>
<path d="M1393 1053 c-2 -37 -9 -63 -23 -80 -27 -34 -26 -78 2 -97 33 -24 38
-20 37 27 -1 30 -3 36 -7 20 -5 -16 -11 -20 -20 -14 -11 7 -9 18 12 59 28 55
34 113 14 130 -10 8 -14 -2 -15 -45z"/>
<path d="M2500 1010 c0 -12 -10 -39 -21 -59 l-22 -36 33 34 c31 32 34 32 47
15 7 -10 13 -23 14 -28 3 -47 19 -73 19 -32 0 30 -31 96 -54 115 -14 12 -16
10 -16 -9z"/>
<path d="M1443 938 c-6 -7 -13 -28 -17 -47 -5 -28 -4 -32 8 -21 8 6 16 24 18
38 3 31 29 32 63 4 19 -16 19 -16 5 3 -8 11 -14 21 -15 22 0 1 -12 4 -26 8
-16 4 -29 1 -36 -7z"/>
<path d="M2778 909 c-21 -10 -68 -26 -105 -35 -75 -17 -133 -41 -133 -55 0 -5
12 -3 28 5 15 7 43 17 62 20 19 4 56 12 82 18 26 7 50 9 54 6 8 -8 -13 -47
-45 -83 l-26 -29 35 25 c32 25 111 150 93 149 -4 -1 -25 -10 -45 -21z"/>
<path d="M1480 887 c0 -25 -22 -49 -52 -60 -13 -4 -18 -16 -17 -39 0 -18 3
-27 6 -20 10 25 91 98 105 93 7 -2 2 8 -11 23 -30 32 -31 32 -31 3z"/>
<path d="M932 888 c-7 -7 -12 -16 -12 -21 0 -12 -49 -56 -75 -67 -13 -6 -15
-9 -5 -9 23 -1 80 37 86 57 3 9 10 25 15 35 11 20 8 22 -9 5z"/>
<path d="M1289 883 c-2 -5 -25 -26 -51 -47 l-48 -38 69 -49 c38 -27 73 -54 78
-61 8 -13 9 -16 12 -40 3 -19 20 23 20 52 1 18 -2 21 -8 11 -7 -11 -17 -8 -49
17 -22 18 -43 32 -47 32 -11 0 -35 28 -35 40 0 14 30 45 44 46 11 1 73 -33 92
-50 5 -5 9 -23 7 -40 -2 -22 1 -17 10 14 l12 45 -36 16 c-20 9 -43 27 -52 39
-8 12 -16 18 -18 13z"/>
<path d="M743 873 c-16 -6 -17 -39 -3 -48 6 -4 7 -11 4 -17 -4 -7 -2 -8 4 -4
7 4 12 16 12 26 0 10 9 22 20 25 11 3 20 11 20 16 0 9 -36 11 -57 2z"/>
<path d="M945 838 c-4 -13 -18 -38 -32 -55 -13 -18 -20 -33 -15 -33 12 0 35
28 52 65 8 17 16 33 18 38 2 4 -1 7 -7 7 -5 0 -13 -10 -16 -22z"/>
<path d="M215 838 c-27 -15 -65 -50 -65 -60 0 -17 26 -7 35 15 6 12 20 26 33
32 12 5 22 13 22 17 0 10 -1 10 -25 -4z"/>
<path d="M805 834 c4 -14 0 -24 -10 -28 -22 -8 -19 -26 5 -26 22 0 27 34 9 60
-8 12 -9 11 -4 -6z"/>
<path d="M1550 846 c0 -3 9 -14 20 -24 19 -18 19 -20 3 -38 -10 -11 -39 -35
-65 -53 -27 -17 -48 -34 -48 -37 0 -7 14 2 88 55 34 24 62 47 61 50 0 8 -59
54 -59 47z"/>
<path d="M2283 823 c-22 -8 -14 -23 11 -23 30 0 42 15 20 24 -9 3 -16 6 -17 5
-1 0 -8 -3 -14 -6z"/>
<path d="M1162 780 c7 -11 15 -20 19 -20 3 0 14 -8 25 -18 21 -20 124 -84 124
-78 0 2 -21 20 -47 39 -27 19 -67 49 -91 66 -31 23 -39 26 -30 11z"/>
<path d="M2390 750 c0 -29 4 -40 15 -40 11 0 15 11 15 40 0 29 -4 40 -15 40
-11 0 -15 -11 -15 -40z"/>
<path d="M2808 763 c42 -28 55 -53 27 -53 -42 0 -166 -114 -202 -184 -18 -37
-11 -30 57 52 69 84 122 122 172 122 21 0 38 4 38 8 0 8 -47 47 -85 69 -41 25
-48 12 -7 -14z"/>
<path d="M850 739 c0 -7 -12 -9 -34 -5 -27 5 -35 3 -40 -11 -4 -10 -2 -19 3
-21 16 -5 13 -32 -3 -32 -8 0 -16 -7 -20 -15 -4 -12 3 -15 32 -15 34 0 39 4
65 50 31 58 32 60 12 60 -8 0 -15 -5 -15 -11z"/>
<path d="M2392 648 c4 -74 28 -77 28 -4 0 44 -3 56 -16 56 -12 0 -14 -10 -12
-52z"/>
<path d="M500 663 c-62 -23 -81 -103 -35 -148 18 -19 34 -25 62 -24 l38 1 -37
8 c-51 9 -78 36 -78 75 0 34 34 75 63 75 9 0 17 5 17 10 0 11 -7 11 -30 3z"/>
<path d="M2180 649 c0 -20 -2 -21 -11 -9 -9 12 -10 12 -5 -4 4 -11 4 -39 0
-63 -7 -49 -28 -57 -59 -23 -18 20 -18 21 16 57 l34 36 -47 -33 c-27 -18 -48
-36 -48 -40 0 -3 20 -21 45 -38 26 -18 43 -37 40 -42 -3 -6 -2 -10 3 -10 10 0
46 179 38 188 -3 3 -6 -6 -6 -19z"/>
<path d="M2206 627 c-4 -27 -5 -51 -2 -55 3 -3 6 4 6 16 0 28 15 35 39 20 32
-20 35 -68 5 -68 -8 0 -14 -7 -14 -15 0 -12 9 -9 35 12 19 15 35 31 35 34 0 3
-20 20 -45 39 -24 18 -46 40 -48 49 -2 9 -7 -6 -11 -32z"/>
<path d="M676 622 c21 -30 24 -47 24 -126 0 -105 8 -166 22 -166 6 0 9 41 8
103 -3 123 -3 130 10 122 6 -3 10 -33 10 -65 0 -83 18 -160 37 -160 11 0 13 5
8 18 -4 9 -10 68 -13 130 l-5 112 -38 0 c-34 0 -39 3 -39 23 0 13 -9 26 -24
33 l-23 11 23 -35z"/>
<path d="M2270 641 c0 -5 16 -21 36 -36 29 -23 34 -24 25 -8 -12 23 -61 58
-61 44z"/>
<path d="M504 585 c-4 -9 -2 -21 4 -27 15 -15 44 -1 40 19 -4 23 -36 29 -44 8z"/>
<path d="M2070 518 c19 -18 41 -34 48 -34 19 -1 15 3 -35 37 l-48 31 35 -34z"/>
<path d="M1135 440 l-140 -6 178 -2 c138 -2 178 -5 175 -14 -4 -10 -49 -14
-174 -16 -92 -1 -173 -7 -178 -12 -7 -7 51 -10 165 -10 126 0 179 -3 188 -12
11 -11 13 -10 8 5 -4 9 -3 17 1 17 4 0 8 9 8 20 0 33 -36 37 -231 30z"/>
<path d="M404 355 c-13 -33 4 -45 58 -44 l53 1 -40 9 c-67 16 -65 29 6 29 35
0 71 5 79 10 10 7 -11 10 -68 10 -64 0 -84 -3 -88 -15z"/>
<path d="M996 340 c5 -5 85 -11 177 -12 225 -4 223 -22 -3 -26 -99 -1 -170 -6
-170 -12 0 -6 71 -11 172 -12 126 -2 172 -6 176 -15 3 -10 -34 -13 -163 -13
-108 0 -164 -3 -160 -10 4 -6 67 -9 166 -8 99 2 160 -1 162 -7 11 -28 -8 -31
-203 -28 -156 3 -200 1 -200 -9 0 -10 89 -14 418 -16 229 -2 429 -5 445 -8 22
-5 27 -2 27 15 0 16 -5 19 -27 17 -27 -4 -28 -3 -26 43 l1 46 -6 -40 -7 -40
-57 -3 -58 -3 0 46 0 45 63 2 62 2 -59 3 c-40 3 -70 12 -95 28 -38 25 -90 26
-117 4 -7 -6 -18 -8 -23 -4 -7 3 -8 0 -5 -9 5 -13 -4 -16 -55 -16 -37 0 -61 4
-61 11 0 34 -27 39 -206 39 -116 0 -175 -3 -168 -10z m632 -27 c3 -10 -13 -13
-57 -13 -57 0 -71 6 -54 24 12 12 106 2 111 -11z m-140 -65 l-3 -43 -57 -3
-58 -3 0 46 0 45 61 0 60 0 -3 -42z m142 -3 l0 -46 -57 3 -58 3 -3 43 -3 42
60 0 61 0 0 -45z"/>
<path d="M1389 339 c-9 -6 4 -9 35 -9 27 0 46 3 42 7 -11 11 -61 12 -77 2z"/>
<path d="M1674 338 c-3 -5 15 -8 40 -8 25 0 46 4 46 8 0 10 -80 10 -86 0z"/>
</g>
</svg>
