<?xml version="1.0" standalone="no"?>
<!DOCTYPE svg PUBLIC "-//W3C//DTD SVG 20010904//EN"
 "http://www.w3.org/TR/2001/REC-SVG-20010904/DTD/svg10.dtd">
<svg version="1.0" xmlns="http://www.w3.org/2000/svg"
 width="412.000000pt" height="410.000000pt" viewBox="0 0 412.000000 410.000000"
 preserveAspectRatio="xMidYMid meet">

<g transform="translate(0.000000,410.000000) scale(0.100000,-0.100000)"
fill="#ffffff" stroke="none">
<path d="M1840 4059 c-359 -44 -691 -180 -982 -400 -103 -78 -300 -269 -381
-369 -366 -452 -515 -1079 -396 -1663 102 -505 454 -999 904 -1272 294 -178
670 -279 1032 -277 583 4 1094 224 1483 639 353 377 538 816 557 1323 17 452
-102 856 -356 1210 -36 51 -61 95 -61 111 0 37 -39 69 -83 69 -28 0 -40 6 -54
26 -31 48 -227 215 -343 293 -233 156 -465 246 -760 296 -113 19 -452 28 -560
14z m390 -109 c257 -20 481 -80 694 -186 167 -83 308 -183 486 -342 l54 -49
-179 -187 c-99 -103 -251 -252 -337 -332 -149 -139 -242 -235 -373 -389 -33
-38 -132 -146 -220 -240 -88 -93 -174 -187 -190 -207 -17 -21 -33 -38 -36 -38
-4 0 -9 300 -12 668 -5 649 -23 1119 -47 1241 -5 29 -10 58 -10 62 0 11 6 11
170 -1z m-252 -1119 c2 -1031 3 -1116 19 -1133 12 -13 28 -18 52 -16 31 3 42
12 89 73 138 181 196 249 356 413 94 97 187 197 206 222 53 70 280 298 445
448 83 74 207 194 276 266 l125 130 52 -77 c208 -308 312 -645 312 -1015 0
-383 -91 -709 -285 -1021 -144 -231 -400 -482 -647 -632 -529 -322 -1229 -355
-1770 -85 -405 203 -733 560 -892 971 -122 317 -150 723 -76 1083 121 583 580
1125 1147 1356 167 68 462 138 558 133 l30 -2 3 -1114z"/>
</g>
</svg>
