<svg width="50" height="50" viewBox="0 0 50 50" fill="none" xmlns="http://www.w3.org/2000/svg">
<path d="M25 18.4912C21.416 18.4912 18.4912 21.416 18.4912 25C18.4912 28.584 21.416 31.5088 25 31.5088C28.584 31.5088 31.5088 28.584 31.5088 25C31.5088 21.416 28.584 18.4912 25 18.4912ZM44.5215 25C44.5215 22.3047 44.5459 19.6338 44.3945 16.9433C44.2432 13.8183 43.5303 11.0449 41.2451 8.75975C38.9551 6.46971 36.1865 5.76171 33.0615 5.61034C30.3662 5.45897 27.6953 5.48339 25.0049 5.48339C22.3096 5.48339 19.6387 5.45897 16.9482 5.61034C13.8232 5.76171 11.0498 6.4746 8.76464 8.75975C6.4746 11.0498 5.76659 13.8183 5.61522 16.9433C5.46385 19.6387 5.48827 22.3096 5.48827 25C5.48827 27.6904 5.46385 30.3662 5.61522 33.0566C5.76659 36.1816 6.47948 38.9551 8.76464 41.2402C11.0547 43.5303 13.8232 44.2383 16.9482 44.3896C19.6435 44.541 22.3144 44.5166 25.0049 44.5166C27.7002 44.5166 30.3711 44.541 33.0615 44.3896C36.1865 44.2383 38.9599 43.5254 41.2451 41.2402C43.5351 38.9502 44.2432 36.1816 44.3945 33.0566C44.5508 30.3662 44.5215 27.6953 44.5215 25ZM25 35.0146C19.458 35.0146 14.9853 30.542 14.9853 25C14.9853 19.458 19.458 14.9853 25 14.9853C30.542 14.9853 35.0146 19.458 35.0146 25C35.0146 30.542 30.542 35.0146 25 35.0146ZM35.4248 16.9141C34.1308 16.9141 33.0859 15.8691 33.0859 14.5752C33.0859 13.2812 34.1308 12.2363 35.4248 12.2363C36.7187 12.2363 37.7637 13.2812 37.7637 14.5752C37.764 14.8824 37.7038 15.1867 37.5864 15.4707C37.469 15.7546 37.2967 16.0126 37.0795 16.2299C36.8622 16.4471 36.6042 16.6194 36.3203 16.7368C36.0364 16.8542 35.732 16.9144 35.4248 16.9141Z" fill="white"/>
</svg>
