<svg width="50" height="50" viewBox="0 0 50 50" fill="none" xmlns="http://www.w3.org/2000/svg">
<path d="M0 25C0 35.6729 6.68958 44.7854 16.1042 48.3708C15.875 46.4188 15.6312 43.2 16.1562 40.9417C16.6083 39 19.075 28.5708 19.075 28.5708C19.075 28.5708 18.3312 27.0812 18.3312 24.875C18.3312 21.4167 20.3354 18.8333 22.8333 18.8333C24.9583 18.8333 25.9833 20.4271 25.9833 22.3375C25.9833 24.4729 24.6229 27.6646 23.9208 30.625C23.3354 33.1021 25.1646 35.1229 27.6062 35.1229C32.0292 35.1229 35.4312 30.4583 35.4312 23.725C35.4312 17.7646 31.1479 13.6 25.0333 13.6C17.9542 13.6 13.7979 18.9104 13.7979 24.4C13.7979 26.5396 14.6208 28.8312 15.65 30.0792C15.7377 30.1734 15.7997 30.2887 15.83 30.4138C15.8603 30.539 15.8579 30.6698 15.8229 30.7937C15.6333 31.5812 15.2125 33.2708 15.1312 33.6167C15.0208 34.0708 14.7708 34.1687 14.2979 33.9479C11.1896 32.5021 9.24792 27.9583 9.24792 24.3083C9.24792 16.4562 14.95 9.24792 25.6896 9.24792C34.3229 9.24792 41.0333 15.4 41.0333 23.6208C41.0333 32.1979 35.6271 39.1021 28.1187 39.1021C25.5958 39.1021 23.2271 37.7896 22.4146 36.2417C22.4146 36.2417 21.1667 40.9958 20.8646 42.1583C20.2771 44.4167 18.6479 47.275 17.6375 48.8979C19.9667 49.6146 22.4375 50 25 50C38.8062 50 50 38.8062 50 25C50 11.1937 38.8062 0 25 0C11.1937 0 0 11.1937 0 25Z" fill="white"/>
</svg>
